<?xml version="1.0" encoding="UTF-8" standalone="no"?>
<svg
   width="191"
   height="29"
   viewBox="0 0 191 29"
   fill="none"
   version="1.1"
   id="svg2"
   sodipodi:docname="logo.svg"
   inkscape:version="1.4.2 (f4327f4, 2025-05-13)"
   xmlns:inkscape="http://www.inkscape.org/namespaces/inkscape"
   xmlns:sodipodi="http://sodipodi.sourceforge.net/DTD/sodipodi-0.dtd"
   xmlns="http://www.w3.org/2000/svg"
   xmlns:svg="http://www.w3.org/2000/svg">
  <defs
     id="defs2">
    <rect
       x="29.505781"
       y="-56.882282"
       width="73.15609"
       height="27.376499"
       id="rect3" />
  </defs>
  <sodipodi:namedview
     id="namedview2"
     pagecolor="#ffffff"
     bordercolor="#000000"
     borderopacity="0.25"
     inkscape:showpageshadow="2"
     inkscape:pageopacity="0.0"
     inkscape:pagecheckerboard="0"
     inkscape:deskcolor="#d1d1d1"
     inkscape:zoom="4.6492146"
     inkscape:cx="55.923424"
     inkscape:cy="18.820383"
     inkscape:window-width="1920"
     inkscape:window-height="1057"
     inkscape:window-x="-8"
     inkscape:window-y="-8"
     inkscape:window-maximized="1"
     inkscape:current-layer="svg2"
     showborder="true" />
  <path
     d="m 7.0449912,1.7762646 c -0.90658,0.048031 -2.04132,0.2221451 -2.84584,0.4262771 -0.68445,0.174112 -0.77451,0.282183 -0.80453,0.924599 l -0.02401,0.44429 h -1.09271 c -1.16476,0 -1.248815,0.02401 -1.4109199,0.34222 -0.1020663,0.19813 -0.090059,19.3265703 0.012008,19.5306703 0.042027,0.0841 0.1741131,0.1981 0.2941911,0.2582 l 0.222144,0.108 0.768497,-0.3302 c 4.07065,-1.7351 8.5615696,-2.1133 13.1785496,-1.1167 l 0.8225,0.1801 0.7986,-0.1741 c 0.9846,-0.2161 2.1974,-0.4023 3.11,-0.4863 1.3809,-0.1201 3.9025,-0.048 5.0973,0.1561 1.9993,0.3302 3.4823,0.7625 5.0553,1.4529 0.7685,0.3423 0.9246,0.3483 1.1647,0.0601 l 0.1501,-0.1801 v -9.6603 c 0,-10.5128303 0.0181,-9.9124403 -0.3302,-10.0685403 -0.102,-0.04804 -0.5283,-0.07205 -1.2308,-0.07205 h -1.0807 v -0.4563 c 0,-0.510327 -0.054,-0.648417 -0.2882,-0.768496 -0.4322,-0.216139 -2.0653,-0.492319 -3.4402,-0.5703701 -3.4943,-0.2101369 -6.4062,0.6484201 -8.5496,2.5096261 l -0.4743,0.41427 -0.4322,-0.40226 c -1.2729,-1.18877 -3.1281,-2.035319 -5.21743,-2.371539 C 9.9328712,1.8363037 8.3358312,1.7042183 8.0056212,1.7222294 c -0.08406,0 -0.5163398,0.024015 -0.96063,0.054035 z m 3.3201598,1.3688861 c 1.99332,0.37825 3.48222,1.09271 4.69502,2.23946 l 0.5104,0.48031 v 7.4088003 c 0,4.0767 -0.012,7.4088 -0.0301,7.4088 -0.018,0 -0.144,-0.072 -0.2881,-0.1621 -0.9847,-0.6244 -2.6778,-1.1948 -4.3108,-1.4529 -1.82523,-0.2942 -3.4702998,-0.3182 -5.8898698,-0.0901 l -0.46831,0.042 v -7.83505 -7.8350903 l 0.49833,-0.09606 c 0.43828,-0.08405 1.01466,-0.16811 1.66308,-0.24616 0.11407,-0.01201 0.83454,-0.01801 1.5910298,-0.006 1.08671,0.01201 1.51899,0.04803 2.02932,0.14409 z m 16.10842,-0.03002 c 0.3663,0.05404 0.7986,0.13209 0.9607,0.17412 l 0.2942,0.07204 0.018,7.8290803 0.012,7.82905 -0.4623,-0.042 c -1.3689,-0.1261 -1.8792,-0.1561 -2.8158,-0.1561 -2.7558,0 -5.1814,0.5223 -7.0907,1.531 l -0.6184,0.3242 v -7.4028 -7.4028003 l 0.4083,-0.40226 c 1.3989,-1.37489 3.038,-2.07735 5.7457,-2.4616 0.4263,-0.06004 2.9179,0.01802 3.5483,0.10807 z M 3.4426512,12.355121 v 7.5829 l 0.12609,0.1381 c 0.19212,0.2042 0.36023,0.2462 0.78651,0.1801 0.90058,-0.132 2.44959,-0.2341 3.56031,-0.2341 1.6510698,0 3.0380098,0.1801 4.3528098,0.5644 l 0.5104,0.15 -0.5704,-0.042 c -0.9006,-0.066 -3.5063,-0.042 -4.2327698,0.036 -1.86721,0.2162 -3.87852,0.7025 -5.56562,1.3509 l -0.40826,0.1561 v -8.7296 -8.7357103 h 0.72047 0.72046 z m 26.8975198,1.1528 v 8.7296 l -0.4023,-0.1561 c -1.9573,-0.7385 -4.1307,-1.2308 -6.226,-1.4049 -0.8226,-0.066 -3.0921,-0.042 -3.8786,0.036 -0.2281,0.024 -0.1921,0.006 0.2102,-0.12 0.6724,-0.2042 1.8552,-0.4323 2.7017,-0.5164 0.9006,-0.09 3.5603,-0.036 4.563,0.0901 0.8585,0.1141 1.1948,0.1201 1.3629,0.03 0.2942,-0.1561 0.2882,0.06 0.2882,-7.9492 V 4.7722107 h 0.6904 0.6905 z"
     fill="#0d5ff9"
     id="path1"
     sodipodi:nodetypes="ccccscccccccccccccscscscccccccccccssccccccccccccccccscccccccccccsccccccccccccccccccccscccc"
     style="fill:#0d5ff9;fill-opacity:1"
     inkscape:label="path1" />
  <path
     d="m 51.457616,21.924396 q -1.670366,0 -3.216077,-0.457388 -1.520783,-0.484293 -2.418293,-1.156923 l 1.196681,-2.555991 q 0.89751,0.618819 2.144052,1.022397 1.246542,0.403578 2.493084,0.403578 1.47092,0 2.119122,-0.430483 0.673132,-0.430483 0.673132,-1.156923 0,-0.591913 -0.448754,-0.887871 -0.448756,-0.322861 -1.17175,-0.484292 -0.722994,-0.161431 -1.620505,-0.295957 -0.87258,-0.134526 -1.77009,-0.349768 -0.872579,-0.242146 -1.595574,-0.672629 -0.722994,-0.457387 -1.171749,-1.210733 -0.448755,-0.753345 -0.448755,-1.990982 0,-1.372164 0.722994,-2.3676555 0.722995,-1.0223965 2.019398,-1.5604999 1.321335,-0.5650086 3.116355,-0.5650086 1.346266,0 2.717462,0.322862 1.371197,0.3228621 2.268707,0.9147759 l -1.19668,2.5559911 Q 54.923003,10.382077 53.9507,10.166836 53.003329,9.9246893 52.055957,9.9246893 q -1.421058,0 -2.119122,0.4573877 -0.673132,0.457388 -0.673132,1.156923 0,0.645724 0.448754,0.968586 0.448756,0.322862 1.171751,0.511198 0.722994,0.188336 1.595574,0.322862 0.89751,0.107621 1.770089,0.349767 0.87258,0.242147 1.595574,0.67263 0.747925,0.403577 1.19668,1.156923 0.448756,0.753344 0.448756,1.964076 0,1.345259 -0.747926,2.340751 -0.722994,0.995491 -2.06926,1.560499 -1.346266,0.538104 -3.216079,0.538104 z m 11.268727,-3.390052 0.0748,-4.224111 6.955705,-6.941535 h 3.739626 l -5.908609,6.403431 -1.645437,1.479785 z M 60.183396,21.73606 V 1.7724222 h 3.116356 V 21.73606 Z m 10.04713,0 -4.861514,-6.484146 1.969536,-2.690517 6.681465,9.174663 z m 5.783962,0 V 7.368698 h 3.116356 V 21.73606 Z M 77.585132,5.0010428 q -0.87258,0 -1.445989,-0.5919138 -0.548479,-0.5919137 -0.548479,-1.4259741 0,-0.8609654 0.548479,-1.425974 0.573409,-0.59191384 1.445989,-0.59191384 0.872579,0 1.421057,0.56500864 0.57341,0.5381034 0.57341,1.3721637 0,0.8878707 -0.548479,1.5066896 -0.548478,0.5919138 -1.445988,0.5919138 z M 83.219489,21.73606 V 1.7724222 h 3.116355 V 21.73606 Z m 7.205004,0 V 1.7724222 h 3.116355 V 21.73606 Z m 11.318587,0.188336 q -1.67036,0 -3.216072,-0.457388 -1.520785,-0.484293 -2.418295,-1.156923 l 1.196679,-2.555991 q 0.897511,0.618819 2.144056,1.022397 1.246542,0.403578 2.493082,0.403578 1.47092,0 2.11912,-0.430483 0.67314,-0.430483 0.67314,-1.156923 0,-0.591913 -0.44876,-0.887871 -0.44875,-0.322861 -1.17175,-0.484292 -0.723,-0.161431 -1.62051,-0.295957 -0.87257,-0.134526 -1.770084,-0.349768 -0.872577,-0.242146 -1.595575,-0.672629 -0.722995,-0.457387 -1.17175,-1.210733 -0.448755,-0.753345 -0.448755,-1.990982 0,-1.372164 0.722994,-2.3676555 0.722995,-1.0223965 2.019396,-1.5604999 1.321334,-0.5650086 3.116354,-0.5650086 1.34627,0 2.71747,0.322862 1.37119,0.3228621 2.2687,0.9147759 l -1.19668,2.5559911 q -0.94737,-0.618819 -1.91968,-0.83406 -0.94737,-0.2421467 -1.89474,-0.2421467 -1.42105,0 -2.11912,0.4573877 -0.673135,0.457388 -0.673135,1.156923 0,0.645724 0.44876,0.968586 0.448745,0.322862 1.171745,0.511198 0.723,0.188336 1.59558,0.322862 0.89751,0.107621 1.77008,0.349767 0.87259,0.242147 1.59558,0.67263 0.74793,0.403577 1.19668,1.156923 0.44876,0.753344 0.44876,1.964076 0,1.345259 -0.74793,2.340751 -0.72299,0.995491 -2.06926,1.560499 -1.34627,0.538104 -3.21608,0.538104 z M 113.16139,21.73606 108.27494,7.368698 h 2.94184 l 4.18838,12.672336 h -1.39612 l 4.38783,-12.672336 h 2.61773 l 4.26318,12.672336 h -1.3712 l 4.31303,-12.672336 h 2.76733 l -4.91138,14.367362 h -2.99169 l -3.88922,-11.219457 h 0.92244 l -3.964,11.219457 z m 27.60819,0 v -2.905759 l -0.17451,-0.618818 v -5.085078 q 0,-1.479784 -0.82273,-2.28694 -0.82271,-0.83406 -2.49308,-0.83406 -1.12188,0 -2.21885,0.376672 -1.07202,0.376673 -1.81995,1.049302 l -1.22161,-2.4483707 q 1.07203,-0.8878707 2.54295,-1.3183534 1.49585,-0.4573879 3.09143,-0.4573879 2.89198,0 4.46262,1.5066896 1.59557,1.4797844 1.59557,4.6007844 v 8.421319 z m -4.18839,0.188336 q -1.49584,0 -2.61773,-0.538104 -1.12189,-0.565008 -1.74516,-1.533594 -0.59834,-0.995492 -0.59834,-2.23313 0,-1.210732 0.52355,-2.179318 0.54848,-0.968586 1.77009,-1.533595 1.22161,-0.565009 3.24101,-0.565009 h 3.86428 v 2.233129 h -3.6399 q -1.59558,0 -2.14405,0.565009 -0.54849,0.538103 -0.54849,1.345258 0,0.914776 0.67313,1.45288 0.67314,0.538103 1.86982,0.538103 1.14682,0 2.04433,-0.565008 0.92244,-0.565008 1.32134,-1.668121 l 0.52354,2.017888 q -0.44876,1.264543 -1.6205,1.964077 -1.14682,0.699535 -2.91692,0.699535 z m 18.49869,0 q -1.62049,0 -2.96676,-0.807155 -1.32134,-0.807156 -2.11912,-2.421466 -0.77286,-1.641215 -0.77286,-4.143397 0,-2.529085 0.74793,-4.143395 0.77285,-1.6143109 2.09418,-2.3945609 1.32134,-0.8071551 3.01663,-0.8071551 1.96954,0 3.46539,0.9147758 1.52078,0.9147758 2.39337,2.5559922 0.89751,1.641215 0.89751,3.874343 0,2.23313 -0.89751,3.90125 -0.87259,1.641217 -2.39337,2.555993 -1.49585,0.914775 -3.46539,0.914775 z m -7.37952,5.031267 V 7.368698 h 2.96676 v 3.390052 l -0.0997,3.820535 0.2493,3.820533 v 8.555845 z m 7.03049,-7.91012 q 1.12189,0 1.99447,-0.538104 0.89751,-0.538103 1.42106,-1.5605 0.52355,-1.022396 0.52355,-2.394561 0,-1.399068 -0.52355,-2.394559 -0.52355,-1.022397 -1.42106,-1.5605 -0.87258,-0.538104 -1.99447,-0.538104 -1.12188,0 -2.01939,0.538104 -0.89751,0.538103 -1.42107,1.5605 -0.52354,0.995491 -0.52354,2.394559 0,1.372165 0.52354,2.394561 0.52356,1.022397 1.42107,1.5605 0.89751,0.538104 2.01939,0.538104 z"
     id="text2"
     style="font-size:25.8992px;font-family:Montserrat;-inkscape-font-specification:'Montserrat, @wght=600';font-variation-settings:'wght' 600;fill:#002935;stroke-width:3.02712;fill-opacity:1"
     inkscape:label="text2"
     aria-label="skillswap" />
</svg>
