<?xml version="1.0" encoding="UTF-8"?>
<svg version="1.1" xmlns="http://www.w3.org/2000/svg" width="500" height="500">
<path d="M0 0 C165 0 330 0 500 0 C500 165 500 330 500 500 C335 500 170 500 0 500 C0 335 0 170 0 0 Z " fill="#C9C9C9" transform="translate(0,0)"/>
<path d="M0 0 C2.49602255 1.20788258 4.75770789 2.41841301 7.10546875 3.859375 C7.75195877 4.24563049 8.39844879 4.63188599 9.06452942 5.02984619 C10.42170296 5.84459947 11.77540596 6.66515926 13.12573242 7.49121094 C15.18321317 8.74738273 17.25340375 9.98019306 19.32617188 11.2109375 C20.649257 12.00905972 21.97155078 12.80849557 23.29296875 13.609375 C23.90657761 13.97415955 24.52018646 14.33894409 25.15238953 14.71478271 C28.89096825 17.02349755 31.63879103 19.27549733 34 23 C34.51757812 25.5078125 34.51757812 25.5078125 34.53125 28.125 C34.53898437 29.55585938 34.53898437 29.55585938 34.546875 31.015625 C34.53140625 32.00046875 34.5159375 32.9853125 34.5 34 C34.52320312 35.47726563 34.52320312 35.47726563 34.546875 36.984375 C34.54171875 37.93828125 34.5365625 38.8921875 34.53125 39.875 C34.52673828 40.73867187 34.52222656 41.60234375 34.51757812 42.4921875 C33.61223586 46.87882701 31.01950686 49.26724786 27.46630859 51.82104492 C26.53641113 52.36865479 25.60651367 52.91626465 24.6484375 53.48046875 C23.63265625 54.08697266 22.616875 54.69347656 21.5703125 55.31835938 C20.51585937 55.93517578 19.46140625 56.55199219 18.375 57.1875 C16.27722831 58.42859672 14.18080474 59.67197583 12.0859375 60.91796875 C10.6944751 61.73430786 10.6944751 61.73430786 9.27490234 62.56713867 C6.91797079 63.93438727 6.91797079 63.93438727 5 66 C4.78444604 68.45995893 4.78444604 68.45995893 6 71 C8.31442839 72.71715654 10.43078274 74.07127252 12.9375 75.4375 C13.95215332 76.01890747 13.95215332 76.01890747 14.98730469 76.61206055 C16.98401666 77.75530857 18.99077574 78.87892965 21 80 C22.92200689 81.09484458 24.83965815 82.19742639 26.75 83.3125 C27.50796875 83.74175781 28.2659375 84.17101562 29.046875 84.61328125 C31.31903568 86.22651533 32.52227749 87.63215734 34 90 C34.6443004 93.95533017 34.50947856 97.93517767 34.5 101.9375 C34.52835937 103.02224609 34.55671875 104.10699219 34.5859375 105.22460938 C34.60522828 113.07113386 34.60522828 113.07113386 32.14453125 116.84765625 C27.60912408 119.95201569 22.95741194 122.77162303 18.1875 125.5 C16.26378807 126.61365996 14.34060208 127.72822896 12.41796875 128.84375 C11.49290527 129.37226563 10.5678418 129.90078125 9.61474609 130.4453125 C7.23757166 131.85874358 5.00441939 133.38698667 2.73828125 134.96875 C-0.1672418 136.79338135 -0.97286399 136.99982341 -4.6015625 137.0234375 C-8.23299209 135.92983457 -11.11312491 134.56001065 -14.375 132.625 C-14.95934814 132.27848389 -15.54369629 131.93196777 -16.14575195 131.57495117 C-18.10756465 130.39960898 -20.0542317 129.2017028 -22 128 C-22.74330566 127.5467334 -23.48661133 127.0934668 -24.25244141 126.62646484 C-26.57420963 125.20401075 -28.88266022 123.76219939 -31.1875 122.3125 C-31.9182373 121.86148926 -32.64897461 121.41047852 -33.40185547 120.94580078 C-37.30421561 118.44414684 -40.34074917 116.49302753 -42 112 C-42.45816815 108.48988326 -42.50972892 105.03646386 -42.5 101.5 C-42.52835938 100.56285156 -42.55671875 99.62570312 -42.5859375 98.66015625 C-42.59814599 94.35666479 -42.56467135 91.80780952 -40.05859375 88.22265625 C-35.99803983 85.27188335 -31.84307391 82.55725078 -27.5625 79.9375 C-25.10372572 78.414315 -22.64604406 76.88951298 -20.19189453 75.35888672 C-18.83667607 74.51870561 -17.47431693 73.68978075 -16.10107422 72.87939453 C-12.91532169 70.93305452 -12.91532169 70.93305452 -11.125 67.75 C-11.08375 67.1725 -11.0425 66.595 -11 66 C-18.04738104 60.81185265 -25.39029758 56.25573752 -32.92919922 51.82104492 C-33.68475098 51.36963135 -34.44030273 50.91821777 -35.21875 50.453125 C-35.89873047 50.05254883 -36.57871094 49.65197266 -37.27929688 49.23925781 C-39 48 -39 48 -41 45 C-41.48756427 41.22458199 -41.41647305 37.42854104 -41.4375 33.625 C-41.48680664 32.06265625 -41.48680664 32.06265625 -41.53710938 30.46875 C-41.59063288 22.85868042 -41.59063288 22.85868042 -39.01171875 19.109375 C-35.21557146 16.4505948 -31.3696558 13.97425886 -27.375 11.625 C-25.76087969 10.66547256 -24.14759588 9.70453656 -22.53515625 8.7421875 C-21.75672363 8.27780273 -20.97829102 7.81341797 -20.17626953 7.33496094 C-18.28087988 6.17229652 -16.44458513 4.96652076 -14.62109375 3.6953125 C-13.69425781 3.05335938 -12.76742187 2.41140625 -11.8125 1.75 C-11.03519531 1.18796875 -10.25789063 0.6259375 -9.45703125 0.046875 C-5.94107133 -1.45118106 -3.71913052 -0.79144707 0 0 Z " fill="#400D72" transform="translate(77,177)"/>
<path d="M0 0 C1.3921875 0.3403125 1.3921875 0.3403125 2.8125 0.6875 C3.1425 1.6775 3.4725 2.6675 3.8125 3.6875 C4.699375 3.0275 5.58625 2.3675 6.5 1.6875 C11.9125847 -1.39910634 17.78040814 -1.05889521 23.8125 -0.3125 C29.18456344 1.37099875 32.67954493 5.12233689 35.8125 9.6875 C39.09171798 17.18285538 39.2436514 27.38092002 36.6875 35.125 C34.13997075 40.64662154 30.63621349 45.22907724 24.9375 47.625 C19.45174706 49.31050806 14.77202616 49.50693821 9.375 47.25 C6.8125 45.6875 6.8125 45.6875 5.8125 44.6875 C5.8031543 45.30794189 5.79380859 45.92838379 5.78417969 46.56762695 C5.73049005 49.37922677 5.64684354 52.1891598 5.5625 55 C5.54123047 56.46469727 5.54123047 56.46469727 5.51953125 57.95898438 C5.48730469 58.89677734 5.45507812 59.83457031 5.421875 60.80078125 C5.40092773 61.66485596 5.37998047 62.52893066 5.35839844 63.41918945 C4.8125 65.6875 4.8125 65.6875 2.93847656 67.50073242 C0.8125 68.6875 0.8125 68.6875 -1.8125 68.5625 C-4.1875 67.6875 -4.1875 67.6875 -6.1875 64.6875 C-6.44819641 61.99316406 -6.44819641 61.99316406 -6.4621582 58.703125 C-6.47169022 57.47174805 -6.48122223 56.24037109 -6.49104309 54.97167969 C-6.49078169 53.62695284 -6.48984476 52.28222597 -6.48828125 50.9375 C-6.49216822 49.55891796 -6.49650289 48.18033711 -6.50126648 46.80175781 C-6.50872657 43.91337195 -6.50843869 41.02510832 -6.50317383 38.13671875 C-6.49737471 34.43423385 -6.51432125 30.73224847 -6.5375185 27.02984619 C-6.5522444 24.18340121 -6.55312922 21.33707691 -6.55000877 18.49060059 C-6.55052241 17.12543751 -6.55576823 15.76026776 -6.56582069 14.3951416 C-6.57814619 12.48742483 -6.56946451 10.57960718 -6.55981445 8.671875 C-6.56075859 7.04330566 -6.56075859 7.04330566 -6.5617218 5.38183594 C-6.1875 2.6875 -6.1875 2.6875 -4.8634491 0.79394531 C-3.1875 -0.3125 -3.1875 -0.3125 0 0 Z " fill="#3F0D6D" transform="translate(429.1875,226.3125)"/>
<path d="M0 0 C3.61753756 3.37636839 5.81328702 5.79929334 6.24050903 10.83477783 C6.2338472 12.47358917 6.2338472 12.47358917 6.22705078 14.14550781 C6.22689972 15.38649231 6.22674866 16.62747681 6.22659302 17.90606689 C6.21638061 19.2550879 6.20594864 20.60410727 6.1953125 21.953125 C6.19158049 23.3374613 6.18873441 24.72180025 6.18673706 26.10614014 C6.17911534 29.7426691 6.15947955 33.37903731 6.1373291 37.01550293 C6.11683909 40.72906317 6.10772861 44.44264948 6.09765625 48.15625 C6.07623215 55.43757314 6.04211401 62.71876401 6 70 C2.1856948 68.76461708 -1.17233717 67.49732346 -4.609375 65.42578125 C-5.44227051 64.92626953 -6.27516602 64.42675781 -7.13330078 63.91210938 C-8.42856689 63.12030273 -8.42856689 63.12030273 -9.75 62.3125 C-11.08200439 61.50329102 -11.08200439 61.50329102 -12.44091797 60.67773438 C-29.92529558 49.98624122 -29.92529558 49.98624122 -32 45 C-32.46147833 41.53210987 -32.41605467 38.05808805 -32.4375 34.5625 C-32.47037109 33.62083984 -32.50324219 32.67917969 -32.53710938 31.70898438 C-32.57064977 27.38837192 -32.57397142 24.82392671 -30.0625 21.21875 C-25.99791807 18.27400187 -21.84290947 15.55715014 -17.5625 12.9375 C-14.37295746 10.9616117 -11.18473955 8.98362153 -8 7 C-7.38495605 6.61859863 -6.76991211 6.23719727 -6.13623047 5.84423828 C-3.33924943 4.05739607 -1.88108104 2.82162156 0 0 Z " fill="#7F2AE2" transform="translate(67,244)"/>
<path d="M0 0 C3.625 0.375 3.625 0.375 7 1 C15 22.23404255 15 22.23404255 15 28 C15.66 28 16.32 28 17 28 C17.08636719 27.45214844 17.17273438 26.90429688 17.26171875 26.33984375 C18.24632304 20.78450761 19.66663556 15.43210989 21.375 10.0625 C21.57182373 9.4120874 21.76864746 8.7616748 21.97143555 8.09155273 C23.23966305 4.2344683 24.3555581 1.92775498 28 0 C31 -0.1875 31 -0.1875 34 1 C37.61131484 6.16113316 39.1538734 12.41641293 40.6875 18.4375 C41.62683931 23.62531272 41.62683931 23.62531272 44 28 C44.2266333 27.22285645 44.4532666 26.44571289 44.68676758 25.64501953 C45.71731865 22.13489376 46.7646689 18.63000421 47.8125 15.125 C48.16892578 13.90167969 48.52535156 12.67835938 48.89257812 11.41796875 C49.24384766 10.25136719 49.59511719 9.08476562 49.95703125 7.8828125 C50.27647705 6.80402832 50.59592285 5.72524414 50.92504883 4.61376953 C52 2 52 2 55 0 C58.125 0.25 58.125 0.25 61 1 C64.24466741 7.48933483 59.97789837 16.86419806 57.84481812 23.30322266 C57.34497349 24.78455914 56.841561 26.26469617 56.3347168 27.74365234 C55.55600112 30.01898913 54.79547956 32.29984226 54.03710938 34.58203125 C53.54792179 36.03420722 53.05772437 37.48604348 52.56640625 38.9375 C52.22567833 39.9577124 52.22567833 39.9577124 51.87806702 40.99853516 C50.88173382 43.88511358 50.18870182 45.81129818 48 48 C45.31160615 48.26991906 42.70858064 48.08737357 40 48 C36.01161801 39.5630381 33.03521401 30.81223801 30 22 C27.22216699 28.59541356 24.84991083 35.27449733 22.66333008 42.08422852 C21.10183458 46.89816542 21.10183458 46.89816542 20 48 C14.20411664 48.46740995 14.20411664 48.46740995 12 48 C8.65744233 44.50339698 7.50278257 40.19057564 6.046875 35.69140625 C5.78239563 34.88767075 5.51791626 34.08393524 5.24542236 33.25584412 C4.69028165 31.56010998 4.13915592 29.86305684 3.59179688 28.16479492 C2.7525667 25.57043459 1.89270003 22.98353879 1.03125 20.39648438 C0.49352203 18.74520457 -0.04297799 17.09352429 -0.578125 15.44140625 C-0.83636047 14.67043106 -1.09459595 13.89945587 -1.36065674 13.1051178 C-2.63256377 9.09332354 -3.52218076 6.11228142 -2 2 C-1.34 1.34 -0.68 0.68 0 0 Z " fill="#3F0E6F" transform="translate(313,226)"/>
<path d="M0 0 C2.5625 1.8125 2.5625 1.8125 4 4 C3.6875 9.3125 3.6875 9.3125 2 11 C-1.74623114 11.36548596 -4.45718387 10.929146 -7.875 9.5 C-12.16887178 7.77258032 -15.38094419 7.53809442 -20 8 C-22.57951684 8.93243871 -22.57951684 8.93243871 -24 11 C-24.66666667 14 -24.66666667 14 -24 17 C-20.11764858 20.88235142 -14.48021301 21.9877029 -9.375 23.57421875 C-3.0382023 25.66782506 1.20949491 28.31424237 5 34 C5.63424743 39.87047618 6.21602333 46.64247114 3.5 52.0625 C-1.52850354 57.97099166 -6.87744574 60.52000644 -14.54296875 61.23828125 C-22.89579878 61.47270336 -30.60771699 59.68999183 -37 54 C-37.47219016 50.76212461 -37.53965989 48.88049772 -35.8125 46.0625 C-34 45 -34 45 -31.6875 45.125 C-29 46 -29 46 -26.5 47.5625 C-21.19996536 49.73929994 -15.65884685 49.77063068 -10 49 C-8.07126999 47.78641428 -8.07126999 47.78641428 -7 46 C-6.5 43 -6.5 43 -7 40 C-9.03407508 37.46667679 -10.98651735 36.41596158 -14.01953125 35.3515625 C-15.18258789 34.92617187 -15.18258789 34.92617187 -16.36914062 34.4921875 C-17.98517982 33.91862923 -19.60235556 33.34826228 -21.22070312 32.78125 C-27.06218656 30.63599058 -31.66614801 28.3215111 -35.34765625 23.08203125 C-37.0332198 17.70235836 -37.12390771 11.03193708 -35.16015625 5.734375 C-27.76537242 -5.71882554 -11.11339305 -5.87122652 0 0 Z " fill="#3E0E6D" transform="translate(165,214)"/>
<path d="M0 0 C3.33466023 2.4192633 4.50041629 3.62048974 6.1875 7.3125 C6.61145839 10.22668718 6.60828625 13.10203221 6.5859375 16.04296875 C6.58880768 16.87460037 6.59167786 17.70623199 6.59463501 18.56306458 C6.59667011 20.31377853 6.59117905 22.06451551 6.57861328 23.81518555 C6.56249009 26.50165127 6.57851136 29.18662647 6.59765625 31.87304688 C6.59567491 33.57552416 6.59183351 35.27800052 6.5859375 36.98046875 C6.59504654 38.18826241 6.59504654 38.18826241 6.6043396 39.42045593 C6.57568359 41.67651367 6.57568359 41.67651367 6.1875 45.3125 C3.1875 47.3125 3.1875 47.3125 0.6875 47.125 C-1.94912075 46.26809826 -3.06939748 45.42257147 -4.8125 43.3125 C-5.410625 43.786875 -6.00875 44.26125 -6.625 44.75 C-11.24956017 48.05325726 -16.34225496 47.91015955 -21.8125 47.3125 C-25.47734214 46.06142216 -28.08945238 44.08219585 -30.75 41.25 C-32.44430611 36.56574192 -32.65599286 32.21881683 -31.8125 27.3125 C-29.64026869 22.75410551 -26.32789325 20.20918094 -21.6875 18.375 C-16.14065376 16.8199867 -10.52171299 17.05167301 -4.8125 17.3125 C-4.99379815 13.87456661 -4.99379815 13.87456661 -5.8125 10.3125 C-8.61205815 8.39244906 -10.96341697 8.03956108 -14.3125 8.0625 C-15.0653125 8.05734375 -15.818125 8.0521875 -16.59375 8.046875 C-19.05405773 8.34141888 -20.64003787 9.15866119 -22.8125 10.3125 C-25.4375 10.5625 -25.4375 10.5625 -27.8125 10.3125 C-29.8125 8.3125 -29.8125 8.3125 -30.25 5.9375 C-29.8125 3.3125 -29.8125 3.3125 -27.5625 1.0625 C-20.53378416 -3.41031917 -7.49510273 -3.47436538 0 0 Z " fill="#400E6F" transform="translate(408.8125,227.6875)"/>
<path d="M0 0 C1.62426758 1.05395508 1.62426758 1.05395508 3 3 C3.33079338 5.57817111 3.4883563 7.92920167 3.51171875 10.51171875 C3.52966995 11.23994339 3.54762115 11.96816803 3.56611633 12.71846008 C3.62024213 15.04141471 3.6541208 17.36416366 3.6875 19.6875 C3.72067125 21.26370051 3.75516073 22.83987388 3.79101562 24.41601562 C3.8759693 28.27719536 3.94276876 32.13831387 4 36 C5.25955888 34.59792107 6.5169405 33.19388605 7.7734375 31.7890625 C8.47388184 31.00740723 9.17432617 30.22575195 9.89599609 29.42041016 C11.88897937 27.12771624 13.76553717 24.77636029 15.625 22.375 C17.32421875 20.3984375 17.32421875 20.3984375 19 19 C22.4375 19 22.4375 19 25 20 C25.84394149 22.70061276 26.2972528 24.24128544 26 27 C24.04060476 30.02921341 21.55146551 32.46402922 19 35 C17.14422141 36.94991229 15.5925187 38.81028678 14 41 C14.56658754 46.09615406 18.68916029 49.38990822 22.05078125 52.95898438 C25.5011283 56.81445133 26.94755401 59.61772982 27 65 C25 67 25 67 22.15625 67.40625 C18.07410486 66.88082538 17.09993228 65.62745478 14.5 62.5 C13.73816406 61.59507812 12.97632813 60.69015625 12.19140625 59.7578125 C9.38401753 56.22480637 6.61831639 52.67591086 4 49 C3.95101562 50.13179688 3.90203125 51.26359375 3.8515625 52.4296875 C3.77653486 53.91148339 3.70098703 55.393253 3.625 56.875 C3.57859375 57.99455078 3.57859375 57.99455078 3.53125 59.13671875 C3.2265625 64.7734375 3.2265625 64.7734375 1 67 C-2.5 67.3125 -2.5 67.3125 -6 67 C-8.30948917 63.53576625 -8.25702797 62.19393719 -8.2746582 58.10742188 C-8.28419022 56.89606567 -8.29372223 55.68470947 -8.30354309 54.43664551 C-8.30263168 53.12723999 -8.30172028 51.81783447 -8.30078125 50.46875 C-8.3046683 49.11258818 -8.30900299 47.75642758 -8.31376648 46.40026855 C-8.32122624 43.55896048 -8.32093893 40.71777668 -8.31567383 37.87646484 C-8.3098747 34.23451088 -8.32682138 30.59306474 -8.3500185 26.95119476 C-8.36474512 24.15107243 -8.36562913 21.35107277 -8.36250877 18.55091858 C-8.36327215 16.55504113 -8.37715185 14.55918272 -8.39118958 12.56335449 C-8.38496078 11.35199829 -8.37873199 10.14064209 -8.37231445 8.89257812 C-8.37294388 7.82463013 -8.3735733 6.75668213 -8.3742218 5.65637207 C-8 3 -8 3 -6.63298035 1.15515137 C-4.29399186 -0.49942198 -2.79782795 -0.41967419 0 0 Z " fill="#3F0C6E" transform="translate(183,207)"/>
<path d="M0 0 C5.91610383 2.36644153 11.22444878 5.48345984 16.69311523 8.7121582 C18.55490641 9.80803032 20.42462615 10.88942689 22.29492188 11.97070312 C23.49010007 12.67360126 24.68477876 13.37734958 25.87890625 14.08203125 C26.9572876 14.71343018 28.03566895 15.3448291 29.14672852 15.99536133 C32.86346872 18.60665198 35.57545625 20.94296535 36.51757812 25.5078125 C36.52208984 26.37148437 36.52660156 27.23515625 36.53125 28.125 C36.53898437 29.55585938 36.53898437 29.55585938 36.546875 31.015625 C36.53140625 32.00046875 36.5159375 32.9853125 36.5 34 C36.51546875 34.98484375 36.5309375 35.9696875 36.546875 36.984375 C36.52278274 41.44144299 36.45348503 44.23138131 34.15625 48.125 C32 50 32 50 29 51 C26.27807593 49.86243562 23.73398021 48.66869962 21.125 47.3125 C20.41730469 46.95994141 19.70960937 46.60738281 18.98046875 46.24414062 C15.901413 44.6759437 13.19232844 43.15488132 10.4921875 40.98046875 C7.30745674 38.30982444 7.30745674 38.30982444 0 35 C0 23.45 0 11.9 0 0 Z " fill="#8129E5" transform="translate(75,177)"/>
<path d="M0 0 C4.32595291 1.82651345 4.32595291 1.82651345 5.8125 4.1875 C6.125 6.75 6.125 6.75 5.8125 9.1875 C3.8125 11.1875 3.8125 11.1875 1.9375 11.19921875 C1.23625 11.09222656 0.535 10.98523438 -0.1875 10.875 C-0.88875 10.77574219 -1.59 10.67648438 -2.3125 10.57421875 C-4.1875 10.1875 -4.1875 10.1875 -6.1875 9.1875 C-7.70595202 9.09277088 -9.22860384 9.0576159 -10.75 9.0625 C-11.55566406 9.05992187 -12.36132812 9.05734375 -13.19140625 9.0546875 C-15.18692021 8.96738609 -15.18692021 8.96738609 -16.1875 10.1875 C-16.22813832 11.85367115 -16.230221 13.52138095 -16.1875 15.1875 C-15.48625 15.42984375 -14.785 15.6721875 -14.0625 15.921875 C1.12235915 21.28609155 1.12235915 21.28609155 5.3125 26 C7.69856222 31.07038223 7.27869032 34.56954535 5.75 39.875 C3.06955905 44.45768937 0.07074871 46.17185344 -5.0546875 47.76953125 C-13.31821206 49.38893991 -20.97736032 48.6170477 -28.1875 44.1875 C-28.8475 43.5275 -29.5075 42.8675 -30.1875 42.1875 C-29.8125 38.5625 -29.8125 38.5625 -29.1875 35.1875 C-27.5625 34.5 -27.5625 34.5 -25.1875 34.1875 C-24.32125 34.64125 -23.455 35.095 -22.5625 35.5625 C-18.21905241 37.65378958 -14.00883967 38.35457613 -9.1875 38.1875 C-6.93929323 37.28371803 -6.93929323 37.28371803 -5.1875 36.1875 C-5.03512134 33.7759788 -5.03512134 33.7759788 -6.1875 31.1875 C-8.76912123 29.61467017 -11.5839098 28.71927733 -14.4375 27.75 C-20.69027149 25.61477871 -24.56272424 23.88459354 -28.1875 18.1875 C-29.29604333 13.22315379 -28.98746539 8.66435919 -26.5625 4.1875 C-19.0348599 -2.15156535 -9.31758395 -2.34930536 0 0 Z " fill="#3E0D6E" transform="translate(300.1875,226.8125)"/>
<path d="M0 0 C0.33 0 0.66 0 1 0 C1.01213028 1.19270256 1.01213028 1.19270256 1.02450562 2.40950012 C1.10241391 9.89922897 1.18969294 17.38876194 1.28752708 24.87825489 C1.33749454 28.72877708 1.3838244 32.57927178 1.421875 36.42993164 C1.45872236 40.14533639 1.50508052 43.86051137 1.55806351 47.57571983 C1.57661044 48.99386252 1.59171733 50.41205446 1.60334396 51.83027077 C1.6202005 53.81508633 1.65037075 55.79977538 1.68115234 57.78442383 C1.69447601 58.91471512 1.70779968 60.04500641 1.7215271 61.20954895 C1.80041418 64.209067 1.80041418 64.209067 4 67 C2.68 66.34 1.36 65.68 0 65 C-0.33 56.09 -0.66 47.18 -1 38 C-1.33 38 -1.66 38 -2 38 C-2.495 35.03 -2.495 35.03 -3 32 C-2.98428955 32.92280762 -2.98428955 32.92280762 -2.96826172 33.86425781 C-2.92661305 36.65946343 -2.90064584 39.45460366 -2.875 42.25 C-2.85824219 43.21808594 -2.84148437 44.18617188 -2.82421875 45.18359375 C-2.81455078 46.58544922 -2.81455078 46.58544922 -2.8046875 48.015625 C-2.78897705 49.30388184 -2.78897705 49.30388184 -2.77294922 50.61816406 C-3.02002085 53.2100252 -3.78480958 54.72447937 -5 57 C-5.38749213 59.32495277 -5.72982839 61.65851268 -6 64 C-6.33 64 -6.66 64 -7 64 C-7.01981934 62.70787598 -7.03963867 61.41575195 -7.06005859 60.08447266 C-7.13598368 55.30220655 -7.22472078 50.52024995 -7.31738281 45.73828125 C-7.35572685 43.66640319 -7.39057005 41.59445731 -7.421875 39.52246094 C-7.46740809 36.54858113 -7.52542118 33.57517038 -7.5859375 30.6015625 C-7.59748871 29.67131256 -7.60903992 28.74106262 -7.62094116 27.78262329 C-7.64081085 26.92188202 -7.66068054 26.06114075 -7.68115234 25.17431641 C-7.69447601 24.41486725 -7.70779968 23.65541809 -7.7215271 22.87295532 C-7.84617052 20.7568774 -7.84617052 20.7568774 -10 19 C-12.5 18.58333333 -12.5 18.58333333 -15 19 C-17.02937312 22.04405968 -17.25115773 22.63877091 -17.25878906 26.05664062 C-17.26509338 26.86758179 -17.27139771 27.67852295 -17.27789307 28.51403809 C-17.2738446 29.38596802 -17.26979614 30.25789795 -17.265625 31.15625 C-17.26753845 32.05492798 -17.2694519 32.95360596 -17.27142334 33.8795166 C-17.2727841 35.77921834 -17.26909527 37.67892942 -17.26074219 39.57861328 C-17.25004111 42.48881895 -17.26064114 45.39840731 -17.2734375 48.30859375 C-17.27211589 50.1536472 -17.26955345 51.99870026 -17.265625 53.84375 C-17.26967346 54.71567993 -17.27372192 55.58760986 -17.27789307 56.48596191 C-17.27158875 57.29690308 -17.26528442 58.10784424 -17.25878906 58.94335938 C-17.25719788 59.65600952 -17.25560669 60.36865967 -17.25396729 61.10290527 C-17.09721554 63.3301851 -17.09721554 63.3301851 -15 66 C-11.89505874 66.31845551 -9.98273923 65.99424641 -7 65 C-7.66 66.32 -8.32 67.64 -9 69 C-12.38724339 69.31509241 -14.44119715 69.31522212 -17.4375 67.625 C-20.40722102 64.58284676 -22.65502157 61.32210449 -25.0234375 57.80078125 C-27.83799608 53.81256287 -30.99855052 50.14405821 -34.1796875 46.4453125 C-37.02575689 42.6220519 -37.02575689 42.6220519 -37 40 C-35.26953125 37.59765625 -35.26953125 37.59765625 -32.8125 35.0625 C-28.84049883 30.91082834 -25.19206642 26.78809963 -22 22 C-21.34 22.33 -20.68 22.66 -20 23 C-19.54625 22.071875 -19.0925 21.14375 -18.625 20.1875 C-17 17 -17 17 -15 14 C-15.99 13.67 -16.98 13.34 -18 13 C-17.38511719 12.93683594 -16.77023438 12.87367188 -16.13671875 12.80859375 C-11.31326161 12.23458689 -11.31326161 12.23458689 -7.734375 9.30859375 C-6.80834447 7.17108649 -6.80834447 7.17108649 -6 4 C-4.68 4 -3.36 4 -2 4 C-1.34 2.68 -0.68 1.36 0 0 Z " fill="#E4E3E5" transform="translate(233,208)"/>
<path d="M0 0 C1.6309967 1.14941406 1.6309967 1.14941406 3 3 C3.38768005 5.69433594 3.38768005 5.69433594 3.40405273 8.984375 C3.41673691 10.21575195 3.42942108 11.44712891 3.44248962 12.71582031 C3.44043832 14.06054858 3.43745041 15.4052757 3.43359375 16.75 C3.43815438 18.12858335 3.4434596 19.50716443 3.44947815 20.88574219 C3.45841249 23.77418254 3.45598232 26.66234645 3.44604492 29.55078125 C3.4345479 33.25343138 3.45477467 36.95512886 3.48396206 40.65765381 C3.50230165 43.5041307 3.50203633 46.35037827 3.49632454 49.19689941 C3.49617108 50.56206602 3.50223575 51.92724793 3.51461601 53.2923584 C3.52948066 55.20006087 3.51624238 57.10791997 3.50170898 59.015625 C3.50145973 60.64419434 3.50145973 60.64419434 3.50120544 62.30566406 C3 65 3 65 1.13270569 66.88574219 C-1 68 -1 68 -3.625 67.8125 C-6 67 -6 67 -8 65 C-8.26069641 62.42591858 -8.26069641 62.42591858 -8.2746582 59.12915039 C-8.28895622 57.28197166 -8.28895622 57.28197166 -8.30354309 55.3974762 C-8.30328167 54.04753593 -8.30234464 52.69759564 -8.30078125 51.34765625 C-8.30466699 49.96764496 -8.30900141 48.58763487 -8.31376648 47.20762634 C-8.32123415 44.31326422 -8.32093364 41.41902406 -8.31567383 38.5246582 C-8.30988004 34.81429762 -8.32680469 31.10443637 -8.3500185 27.39415836 C-8.36474649 24.54342222 -8.36562883 21.69280656 -8.36250877 18.84203911 C-8.36302252 17.47408497 -8.36827027 16.10612418 -8.37832069 14.73820686 C-8.39064742 12.8255913 -8.381964 10.91287509 -8.37231445 9.00024414 C-8.37294388 7.91151505 -8.3735733 6.82278595 -8.3742218 5.70106506 C-8 3 -8 3 -6.63298035 1.14842224 C-4.29286105 -0.49730794 -2.79414085 -0.41912113 0 0 Z " fill="#40116E" transform="translate(242,207)"/>
<path d="M0 0 C3.04706151 -0.38898658 5.07736372 -0.63518541 7.6681366 1.14842224 C9.57298124 3.79656766 9.37418949 5.75695157 9.37231445 9.00024414 C9.37854324 10.23484879 9.38477203 11.46945343 9.39118958 12.74147034 C9.38250242 14.08936975 9.37318454 15.43726522 9.36328125 16.78515625 C9.36276262 18.1661326 9.36328045 19.5471097 9.36479187 20.92808533 C9.36470218 23.82074011 9.35427953 26.71311597 9.33618164 29.60571289 C9.31347307 33.31718913 9.31295448 37.02825857 9.31969929 40.73978519 C9.32303704 43.59048593 9.31641326 46.44109356 9.30657005 49.29177666 C9.30271598 50.6605423 9.3015707 52.0293183 9.3031559 53.39808846 C9.30352585 55.30846602 9.28944497 57.21883002 9.2746582 59.12915039 C9.27005081 60.21708389 9.26544342 61.3050174 9.26069641 62.42591858 C9 65 9 65 7 67 C3.5 67.25 3.5 67.25 0 67 C-2.70073684 64.29926316 -2.25326512 62.90600635 -2.25878906 59.12915039 C-2.26509338 57.89769791 -2.27139771 56.66624542 -2.27789307 55.3974762 C-2.27431299 54.04753477 -2.27021095 52.69759464 -2.265625 51.34765625 C-2.26697189 49.96764558 -2.26891261 48.58763538 -2.27142334 47.20762634 C-2.2743745 44.31325774 -2.27007797 41.41901248 -2.26074219 38.5246582 C-2.2493582 34.81439147 -2.25590029 31.10441442 -2.26788712 27.39415836 C-2.2751151 24.54342976 -2.27281331 21.69276978 -2.26763153 18.84203911 C-2.26629707 17.47409468 -2.26793563 16.10614402 -2.27259064 14.73820686 C-2.27766978 12.82555383 -2.26855564 10.91287898 -2.25878906 9.00024414 C-2.25719788 7.91151505 -2.25560669 6.82278595 -2.25396729 5.70106506 C-2 3 -2 3 0 0 Z " fill="#3F0C71" transform="translate(255,207)"/>
<path d="M0 0 C0.33 0 0.66 0 1 0 C1 11.88 1 23.76 1 36 C2.65 36.66 4.3 37.32 6 38 C8.35504288 39.30622727 10.68123517 40.63301298 13 42 C14.8137382 43.05121 16.62941823 44.09900424 18.4453125 45.14648438 C19.66523524 45.8501844 20.88395662 46.55597057 22.1015625 47.26367188 C24.71679597 48.76828764 27.12844216 50.04281405 30 51 C30 51.66 30 52.32 30 53 C28.22753906 54.24926758 28.22753906 54.24926758 25.765625 55.64453125 C24.88132812 56.15693359 23.99703125 56.66933594 23.0859375 57.19726562 C21.21214877 58.26449929 19.33716825 59.32964348 17.4609375 60.39257812 C12.78007157 63.10951552 9.00066991 65.33516546 6 70 C1.5317476 64.84432416 -0.12797413 62.06745534 -0.11352539 55.05981445 C-0.11344986 53.83877518 -0.11337433 52.6177359 -0.11329651 51.35969543 C-0.10813522 50.04087875 -0.10297394 48.72206207 -0.09765625 47.36328125 C-0.0957908 45.99993441 -0.0943675 44.63658689 -0.09336853 43.27323914 C-0.08955332 39.68771509 -0.07973155 36.10223165 -0.06866455 32.51672363 C-0.05842901 28.8568578 -0.05386632 25.1969854 -0.04882812 21.53710938 C-0.03810838 14.35805442 -0.02104393 7.1790329 0 0 Z " fill="#5C1F99" transform="translate(74,176)"/>
<path d="M0 0 C3.30737084 1.71728871 5.44720322 2.90939753 7.15234375 6.2734375 C9.00468969 12.23167466 8.80409578 18.70832704 6.75 24.5625 C3.8370607 28.61980831 3.8370607 28.61980831 1 30 C-5.46153846 30.8337469 -5.46153846 30.8337469 -8.81640625 29.015625 C-11.89371362 26.61310069 -13.37700927 24.79271283 -14 21 C-14.49004712 14.7613232 -14.74340617 9.29240183 -11 4 C-7.44658496 0.35054671 -5.08370048 -0.82999191 0 0 Z " fill="#C1BFC2" transform="translate(448,235)"/>
<path d="M0 0 C2.95133151 0.51648301 3.67362776 1.11761165 5.5 3.4375 C5.88095093 5.41052246 5.88095093 5.41052246 5.88818359 7.67773438 C5.89764008 8.52871704 5.90709656 9.37969971 5.9168396 10.25646973 C5.91076691 11.17214722 5.90469421 12.08782471 5.8984375 13.03125 C5.90274277 14.4458551 5.90274277 14.4458551 5.90713501 15.88903809 C5.90917646 17.88289999 5.90364093 19.87678188 5.89111328 21.87060547 C5.87506089 24.92591044 5.89095933 27.97989252 5.91015625 31.03515625 C5.90817383 32.97135709 5.90433019 34.90755711 5.8984375 36.84375 C5.90754654 38.21726624 5.90754654 38.21726624 5.9168396 39.61853027 C5.90738312 40.46951294 5.89792664 41.32049561 5.88818359 42.19726562 C5.88579681 42.94544556 5.88341003 43.69362549 5.88095093 44.46447754 C5.39318714 46.99070559 4.51386596 47.87979198 2.5 49.4375 C0 49.875 0 49.875 -2.5 49.4375 C-4.49819449 47.65999804 -5.39249 46.17734567 -5.7789917 43.51757812 C-5.89813229 41.07962466 -5.91560042 38.65958423 -5.8984375 36.21875 C-5.90130768 35.32385864 -5.90417786 34.42896729 -5.90713501 33.50695801 C-5.9091739 31.61742519 -5.90365629 29.72787119 -5.89111328 27.83837891 C-5.875057 24.94776165 -5.89096776 22.05854257 -5.91015625 19.16796875 C-5.90817379 17.33072608 -5.90433005 15.49348429 -5.8984375 13.65625 C-5.90451019 12.79261841 -5.91058289 11.92898682 -5.9168396 11.03918457 C-5.87494952 7.46153118 -5.84392467 5.07798761 -4.13134766 1.88867188 C-2.5 0.4375 -2.5 0.4375 0 0 Z " fill="#3D0D6D" transform="translate(220.5,225.5625)"/>
<path d="M0 0 C0.33 0 0.66 0 1 0 C1.01213028 1.19270256 1.01213028 1.19270256 1.02450562 2.40950012 C1.10241391 9.89922897 1.18969294 17.38876194 1.28752708 24.87825489 C1.33749454 28.72877708 1.3838244 32.57927178 1.421875 36.42993164 C1.45872236 40.14533639 1.50508052 43.86051137 1.55806351 47.57571983 C1.57661044 48.99386252 1.59171733 50.41205446 1.60334396 51.83027077 C1.6202005 53.81508633 1.65037075 55.79977538 1.68115234 57.78442383 C1.69447601 58.91471512 1.70779968 60.04500641 1.7215271 61.20954895 C1.80041418 64.209067 1.80041418 64.209067 4 67 C2.68 66.34 1.36 65.68 0 65 C-0.33 56.09 -0.66 47.18 -1 38 C-1.33 38 -1.66 38 -2 38 C-2.33 36.02 -2.66 34.04 -3 32 C-2.98952637 32.61520508 -2.97905273 33.23041016 -2.96826172 33.86425781 C-2.92661305 36.65946343 -2.90064584 39.45460366 -2.875 42.25 C-2.84986328 43.70212891 -2.84986328 43.70212891 -2.82421875 45.18359375 C-2.81777344 46.11816406 -2.81132812 47.05273438 -2.8046875 48.015625 C-2.79421387 48.87446289 -2.78374023 49.73330078 -2.77294922 50.61816406 C-3.02002085 53.2100252 -3.78480958 54.72447937 -5 57 C-5.38749213 59.32495277 -5.72982839 61.65851268 -6 64 C-6.33 64 -6.66 64 -7 64 C-7.01981934 62.70787598 -7.03963867 61.41575195 -7.06005859 60.08447266 C-7.13598368 55.30220655 -7.22472078 50.52024995 -7.31738281 45.73828125 C-7.35572685 43.66640319 -7.39057005 41.59445731 -7.421875 39.52246094 C-7.46740809 36.54858113 -7.52542118 33.57517038 -7.5859375 30.6015625 C-7.59748871 29.67131256 -7.60903992 28.74106262 -7.62094116 27.78262329 C-7.64081085 26.92188202 -7.66068054 26.06114075 -7.68115234 25.17431641 C-7.69447601 24.41486725 -7.70779968 23.65541809 -7.7215271 22.87295532 C-7.84617052 20.7568774 -7.84617052 20.7568774 -10 19 C-12.5 18.58333333 -12.5 18.58333333 -15 19 C-17.25619542 21.91216721 -17.25619542 21.91216721 -17.5 25.625 C-17.665 26.73875 -17.83 27.8525 -18 29 C-18.66 29.33 -19.32 29.66 -20 30 C-19.70887831 23.58076669 -18.54784971 19.37899794 -15 14 C-15.99 13.67 -16.98 13.34 -18 13 C-17.38511719 12.93683594 -16.77023438 12.87367188 -16.13671875 12.80859375 C-11.31326161 12.23458689 -11.31326161 12.23458689 -7.734375 9.30859375 C-6.80834447 7.17108649 -6.80834447 7.17108649 -6 4 C-4.68 4 -3.36 4 -2 4 C-1.34 2.68 -0.68 1.36 0 0 Z " fill="#ECE6EF" transform="translate(233,208)"/>
<path d="M0 0 C0 0.66 0 1.32 0 2 C0.99 2.33 1.98 2.66 3 3 C3 3.66 3 4.32 3 5 C3.66 5 4.32 5 5 5 C7.11670277 12.00242552 8.54034292 18.69303751 9 26 C9.66 26 10.32 26 11 26 C11 27.32 11 28.64 11 30 C10.34 30 9.68 30 9 30 C7.66197735 25.876506 6.33037699 21.75096648 5 17.625 C4.6184375 16.449375 4.236875 15.27375 3.84375 14.0625 C3.4828125 12.94101563 3.121875 11.81953125 2.75 10.6640625 C2.41484375 9.62717285 2.0796875 8.5902832 1.734375 7.52197266 C1 5 1 5 1 3 C-2.41656024 2.83322718 -2.41656024 2.83322718 -6 3 C-6.66 3.66 -7.32 4.32 -8 5 C-7.73394994 10.98612628 -5.64520016 16.46595816 -3.7421875 22.109375 C-3 25 -3 25 -4 28 C-9 19.81818182 -9 19.81818182 -9 16 C-9.66 16 -10.32 16 -11 16 C-11 15.34 -11 14.68 -11 14 C-11.99 14.66 -12.98 15.32 -14 16 C-16.1875 15.625 -16.1875 15.625 -18 15 C-17.34 14.608125 -16.68 14.21625 -16 13.8125 C-13.80096768 12.15412394 -13.80096768 12.15412394 -13.375 9.5625 C-13.79641515 6.65656164 -13.79641515 6.65656164 -17 4.75 C-17.99 4.1725 -18.98 3.595 -20 3 C-20 2.67 -20 2.34 -20 2 C-17.1875 1.75 -17.1875 1.75 -14 2 C-12.125 4 -12.125 4 -11 6 C-10.773125 5.38125 -10.54625 4.7625 -10.3125 4.125 C-7.83174859 0.10854533 -4.46804403 0 0 0 Z " fill="#E3DEE4" transform="translate(319,224)"/>
<path d="M0 0 C0.36838782 7.49055229 0.36838782 7.49055229 -1.234375 9.70703125 C-4.44682574 12.05951177 -8.11176363 12.10527716 -12 12 C-14.5625 10.9375 -14.5625 10.9375 -16 9 C-16.5625 6 -16.5625 6 -16 3 C-11.79076233 -1.3543838 -5.60624217 -0.26509376 0 0 Z " fill="#D1CFD3" transform="translate(404,254)"/>
<path d="M0 0 C2.94611099 0.51556942 3.67115802 1.12848453 5.5 3.4375 C5.86076355 5.31681824 5.86076355 5.31681824 5.84057617 7.44995117 C5.84034958 8.25055466 5.84012299 9.05115814 5.83988953 9.87602234 C5.82440567 10.73548965 5.80892181 11.59495697 5.79296875 12.48046875 C5.78872391 13.3640657 5.78447906 14.24766266 5.78010559 15.15803528 C5.76331043 17.98066661 5.72565697 20.80258441 5.6875 23.625 C5.67245423 25.53840115 5.65876564 27.45181349 5.64648438 29.36523438 C5.61340419 34.05626459 5.5616163 38.74676131 5.5 43.4375 C5.17 43.4375 4.84 43.4375 4.5 43.4375 C4.17 30.5675 3.84 17.6975 3.5 4.4375 C1.85 4.1075 0.2 3.7775 -1.5 3.4375 C-2.26052961 6.16613551 -2.64101917 8.64234332 -2.70532227 11.47167969 C-2.72526749 12.25218689 -2.74521271 13.03269409 -2.76576233 13.83685303 C-2.78247482 14.66928528 -2.79918732 15.50171753 -2.81640625 16.359375 C-2.83718735 17.21936096 -2.85796844 18.07934692 -2.87937927 18.96539307 C-2.94463739 21.70601598 -3.00364917 24.44673275 -3.0625 27.1875 C-3.10570781 29.0481867 -3.14932282 30.90886398 -3.19335938 32.76953125 C-3.30029442 37.32542523 -3.40162851 41.8814134 -3.5 46.4375 C-4.16 46.1075 -4.82 45.7775 -5.5 45.4375 C-5.57418336 39.67174086 -5.62861797 33.90625983 -5.66479492 28.14013672 C-5.67987695 26.17882447 -5.70034547 24.21754592 -5.72631836 22.25634766 C-5.76272731 19.43643882 -5.77973216 16.61697608 -5.79296875 13.796875 C-5.80845261 12.92069519 -5.82393646 12.04451538 -5.83988953 11.14178467 C-5.84156379 5.07887341 -5.84156379 5.07887341 -4.13793945 1.87988281 C-2.5 0.4375 -2.5 0.4375 0 0 Z " fill="#461D6B" transform="translate(220.5,225.5625)"/>
<path d="M0 0 C4.40660205 5.58751855 4.35745509 11.61932903 3.6875 18.5625 C3.0715323 23.10120935 2.08303396 27.55220034 1 32 C1.66 32 2.32 32 3 32 C2.814375 33.093125 2.62875 34.18625 2.4375 35.3125 C1.7421932 38.93624133 1.7421932 38.93624133 3 42 C3.35788782 47.431474 2.82635011 52.62872426 2 58 C2.061875 58.9075 2.12375 59.815 2.1875 60.75 C2 63 2 63 0 64.8125 C-0.99 65.4003125 -0.99 65.4003125 -2 66 C-1.83923477 65.4667511 -1.67846954 64.9335022 -1.51283264 64.38409424 C-0.89229714 61.49930298 -0.83667532 58.80632226 -0.79467773 55.85449219 C-0.77473251 54.61350769 -0.75478729 53.37252319 -0.73423767 52.09393311 C-0.71725607 50.744915 -0.70037717 49.39589559 -0.68359375 48.046875 C-0.66301124 46.66253049 -0.64201443 45.27819208 -0.62062073 43.89385986 C-0.56553393 40.257456 -0.51606586 36.62099667 -0.46777344 32.98449707 C-0.41746036 29.27086475 -0.36182558 25.55731256 -0.30664062 21.84375 C-0.19922296 14.56256794 -0.09774192 7.28131906 0 0 Z " fill="#F4F5F6" transform="translate(245,210)"/>
<path d="M0 0 C0.99 0.33 1.98 0.66 3 1 C4.94047094 9.57811361 4.05162306 18.34288873 3 27 C5.44278263 26.42557356 5.44278263 26.42557356 8 25 C9.03291676 23.01679982 10.0337499 21.01652194 11 19 C14.34945689 16.36828387 17.88065478 16.77530844 22 17 C22.99 17.33 23.98 17.66 25 18 C25 18.66 25 19.32 25 20 C23.2984375 19.443125 23.2984375 19.443125 21.5625 18.875 C19.32566623 18.47515597 19.32566623 18.47515597 17 19 C13.43503232 21.88193185 10.75994545 25.35911255 8 29 C7.07574219 30.21236328 7.07574219 30.21236328 6.1328125 31.44921875 C5.10328564 32.82110024 4.08808768 34.20396565 3.09375 35.6015625 C2.7328125 36.06304687 2.371875 36.52453125 2 37 C1.67 37 1.34 37 1 37 C0.67 24.79 0.34 12.58 0 0 Z " fill="#EAE7EC" transform="translate(185,208)"/>
<path d="M0 0 C0.99 0.495 0.99 0.495 2 1 C2.06058594 2.20398438 2.12117188 3.40796875 2.18359375 4.6484375 C2.26799732 6.22397077 2.35264541 7.79949096 2.4375 9.375 C2.47681641 10.1690625 2.51613281 10.963125 2.55664062 11.78125 C2.68893404 16.02601221 2.68893404 16.02601221 4 20 C3.76289523 21.64068036 3.52162981 23.28088304 3.2578125 24.91748047 C2.77872991 28.78734269 2.94397266 32.67009375 3 36.5625 C3.11519069 54.3825005 3.11519069 54.3825005 2 61 C1.01 61.495 1.01 61.495 0 62 C0 41.54 0 21.08 0 0 Z " fill="#F3F0F4" transform="translate(264,210)"/>
<path d="M0 0 C0.99 0.33 1.98 0.66 3 1 C2.67 1.66 2.34 2.32 2 3 C1.38511719 2.96519531 0.77023438 2.93039063 0.13671875 2.89453125 C-1.07564453 2.85392578 -1.07564453 2.85392578 -2.3125 2.8125 C-3.11300781 2.77769531 -3.91351563 2.74289063 -4.73828125 2.70703125 C-7.47851584 3.06198392 -8.29171079 3.89366282 -10 6 C-9.59688639 8.51686936 -9.59688639 8.51686936 -8 11 C-5.41217833 12.10491262 -2.76669113 12.54505653 0 13 C0.99 13.20625 1.98 13.4125 3 13.625 C3.66 13.74875 4.32 13.8725 5 14 C5 14.66 5 15.32 5 16 C5.556875 16.0825 6.11375 16.165 6.6875 16.25 C9.69256318 17.22461509 11.57254822 19.00824469 14 21 C14.99 21.33 15.98 21.66 17 22 C17.765625 23.77734375 17.765625 23.77734375 18.25 25.9375 C18.42015625 26.64777344 18.5903125 27.35804688 18.765625 28.08984375 C19 30 19 30 18 32 C17.76925781 31.46890625 17.53851563 30.9378125 17.30078125 30.390625 C16.81158203 29.33101562 16.81158203 29.33101562 16.3125 28.25 C15.99925781 27.55390625 15.68601563 26.8578125 15.36328125 26.140625 C11.59355024 20.22139121 5.69215817 18.56714802 -0.625 16.4375 C-2.32823026 15.86080567 -4.02889108 15.27645244 -5.7265625 14.68359375 C-6.47502441 14.43150146 -7.22348633 14.17940918 -7.99462891 13.91967773 C-10.22156012 12.89839092 -11.47161962 11.90826171 -13 10 C-13.5 7.0625 -13.5 7.0625 -13 4 C-9.08632684 -0.64748687 -5.67264315 -0.45747122 0 0 Z " fill="#DDD7E0" transform="translate(153,221)"/>
<path d="M0 0 C-0.639375 0.226875 -1.27875 0.45375 -1.9375 0.6875 C-4.17848217 1.80104574 -4.17848217 1.80104574 -4.62890625 4.03125 C-5.1222468 7.9779744 -5.05987514 11.84039072 -5 15.8125 C-4.91619242 24.9967743 -5.2422255 34.13319796 -5.73242188 43.30395508 C-5.78076172 44.27872803 -5.82910156 45.25350098 -5.87890625 46.2578125 C-5.9260376 47.1255127 -5.97316895 47.99321289 -6.02172852 48.88720703 C-6.1536541 51.05768505 -6.1536541 51.05768505 -5 53 C-5.30503431 55.00451121 -5.64080679 57.00448218 -6 59 C-6 60.32 -6 61.64 -6 63 C-6.66 63 -7.32 63 -8 63 C-8.06948809 55.22883692 -8.12280502 47.45774652 -8.15543652 39.68635082 C-8.1710975 36.07781697 -8.19234315 32.46949556 -8.22631836 28.86108398 C-8.25889717 25.37921878 -8.27684975 21.89755799 -8.28463173 18.41555214 C-8.29287856 16.43957903 -8.31630038 14.46368825 -8.33988953 12.48783875 C-8.34011612 11.28682022 -8.34034271 10.0858017 -8.34057617 8.84838867 C-8.34723801 7.78915695 -8.35389984 6.72992523 -8.36076355 5.63859558 C-8 3 -8 3 -6.64668274 1.14619446 C-4.38671915 -0.42688193 -2.68726171 -0.21788608 0 0 Z " fill="#33055C" transform="translate(242,207)"/>
<path d="M0 0 C0 0.66 0 1.32 0 2 C-0.969375 2.12375 -1.93875 2.2475 -2.9375 2.375 C-3.948125 2.58125 -4.95875 2.7875 -6 3 C-7.35633784 5.71267568 -7.1346526 7.8497933 -7.14526367 10.88671875 C-7.15164352 12.12139893 -7.15802338 13.3560791 -7.16459656 14.62817383 C-7.166125 15.98128216 -7.16723909 17.33439101 -7.16796875 18.6875 C-7.17118071 20.06990596 -7.17454474 21.45231157 -7.17805481 22.8347168 C-7.18404618 25.7332437 -7.18589465 28.63174078 -7.18530273 31.53027344 C-7.185201 35.24958516 -7.19886494 38.96870648 -7.21607494 42.68797302 C-7.22717621 45.54293705 -7.22922254 48.39785473 -7.22869301 51.25283813 C-7.22987551 52.62440651 -7.23431234 53.99597599 -7.24202538 55.36752319 C-7.25178895 57.28275102 -7.24769242 59.19803449 -7.24291992 61.11328125 C-7.24434494 62.20423096 -7.24576996 63.29518066 -7.24723816 64.41918945 C-7.2605898 67.16371226 -7.2605898 67.16371226 -5 69 C-3.01178687 69.39764263 -1.01055661 69.73775349 1 70 C-0.6875 71.1875 -0.6875 71.1875 -3 72 C-6.10783982 70.74206483 -7.61335599 69.76768638 -9.133255 66.74990845 C-10.09345079 63.70351013 -10.24734366 61.25515527 -10.24291992 58.06396484 C-10.24599655 56.89280121 -10.24907318 55.72163757 -10.25224304 54.51498413 C-10.24505753 53.25964874 -10.23787201 52.00431335 -10.23046875 50.7109375 C-10.23001053 49.41556061 -10.22955231 48.12018372 -10.2290802 46.78555298 C-10.22751999 44.05033974 -10.21926436 41.31525824 -10.20581055 38.58007812 C-10.1887877 35.07510541 -10.18499746 31.57027678 -10.18575573 28.06526756 C-10.1854185 24.71797158 -10.17658214 21.37072284 -10.16796875 18.0234375 C-10.16629951 16.13436172 -10.16629951 16.13436172 -10.16459656 14.2071228 C-10.15821671 13.04226349 -10.15183685 11.87740417 -10.14526367 10.67724609 C-10.14145187 9.65086029 -10.13764008 8.62447449 -10.13371277 7.56698608 C-10 5 -10 5 -9 2 C-8.34 2 -7.68 2 -7 2 C-7 1.34 -7 0.68 -7 0 C-3.86650268 -1.04449911 -3.01031744 -0.93423645 0 0 Z " fill="#E6DEE9" transform="translate(261,205)"/>
<path d="M0 0 C3.125 -0.1875 3.125 -0.1875 6 0 C6.66 1.32 7.32 2.64 8 4 C7.05125 3.835 6.1025 3.67 5.125 3.5 C2.19831099 2.9473365 2.19831099 2.9473365 0 3 C0 21.15 0 39.3 0 58 C-0.66 58 -1.32 58 -2 58 C-2.05062165 50.22211479 -2.08570046 42.44427191 -2.10986328 34.66625977 C-2.11993405 32.0191082 -2.13359136 29.37196779 -2.15087891 26.72485352 C-2.17507972 22.92461395 -2.18647228 19.12452119 -2.1953125 15.32421875 C-2.20563507 14.13664474 -2.21595764 12.94907074 -2.22659302 11.72550964 C-2.22674408 10.62459488 -2.22689514 9.52368011 -2.22705078 8.3894043 C-2.231492 7.41899704 -2.23593323 6.44858978 -2.24050903 5.44877625 C-2 3 -2 3 0 0 Z " fill="#360461" transform="translate(255,207)"/>
<path d="M0 0 C3.5625 0.3125 3.5625 0.3125 5.5625 1.4375 C6.5625 3.3125 6.5625 3.3125 6.5 6.3125 C5.5625 9.3125 5.5625 9.3125 3.75 11.25 C1.5625 12.3125 1.5625 12.3125 -0.5 12.1875 C-2.82363457 11.13811665 -3.97997854 10.42590612 -5.4375 8.3125 C-5.75 5.25 -5.75 5.25 -5.4375 2.3125 C-3.4375 0.3125 -3.4375 0.3125 0 0 Z " fill="#421270" transform="translate(220.4375,208.6875)"/>
<path d="M0 0 C0.66 0 1.32 0 2 0 C1.67 21.45 1.34 42.9 1 65 C0.67 65 0.34 65 0 65 C-0.144375 64.236875 -0.28875 63.47375 -0.4375 62.6875 C-0.9632594 59.91827092 -0.9632594 59.91827092 -2 57 C-1.34 57 -0.68 57 0 57 C-0.14080555 54.22882696 -0.28743118 51.45817359 -0.4375 48.6875 C-0.47681641 47.90181641 -0.51613281 47.11613281 -0.55664062 46.30664062 C-0.59853516 45.54931641 -0.64042969 44.79199219 -0.68359375 44.01171875 C-0.73858032 42.96697388 -0.73858032 42.96697388 -0.79467773 41.90112305 C-0.95581153 39.7783428 -0.95581153 39.7783428 -2 37 C-2.02813198 34.44546986 -1.99887263 31.92595144 -1.9140625 29.375 C-1.89282318 28.63169434 -1.87158386 27.88838867 -1.84970093 27.12255859 C-1.80348498 25.55232885 -1.75456046 23.98217681 -1.703125 22.41210938 C-1.62530042 20.00927556 -1.55812258 17.60631121 -1.4921875 15.203125 C-1.4459499 13.67706389 -1.3990956 12.15102131 -1.3515625 10.625 C-1.33171295 9.90618652 -1.3118634 9.18737305 -1.29141235 8.44677734 C-1.18585551 5.39117972 -0.97335319 2.92005957 0 0 Z " fill="#E5E1E9" transform="translate(174,208)"/>
<path d="M0 0 C0.66 0.33 1.32 0.66 2 1 C1.21625 1.763125 0.4325 2.52625 -0.375 3.3125 C-3.07257717 5.90891805 -3.07257717 5.90891805 -5 9 C-6.32594105 9.36162029 -7.65938457 9.69728039 -9 10 C-9.33 10.66 -9.66 11.32 -10 12 C-9.34 12 -8.68 12 -8 12 C-6.625 13.25 -6.625 13.25 -5 15 C-4.278125 15.721875 -3.55625 16.44375 -2.8125 17.1875 C-2.214375 17.785625 -1.61625 18.38375 -1 19 C-1.66 19.33 -2.32 19.66 -3 20 C-6.3 17.69 -9.6 15.38 -13 13 C-11.87789821 7.38949103 -11.48169165 7.02027046 -7 4 C-4.6975473 2.51454665 -2.45314059 1.24971313 0 0 Z " fill="#D8D5D9" transform="translate(94,234)"/>
<path d="M0 0 C3.24594592 3.1609457 5.83125797 6.0049489 8 10 C5 10 5 10 2 8 C2.02320313 8.68707031 2.04640625 9.37414062 2.0703125 10.08203125 C2.09738281 11.43361328 2.09738281 11.43361328 2.125 12.8125 C2.14820313 13.70582031 2.17140625 14.59914063 2.1953125 15.51953125 C2 18 2 18 0 21 C-2.4375 21.8125 -2.4375 21.8125 -5 22 C-5.99 21.34 -6.98 20.68 -8 20 C-6.5459375 19.5359375 -6.5459375 19.5359375 -5.0625 19.0625 C-2.15934208 18.30476658 -2.15934208 18.30476658 -1 17 C-0.76298761 14.14122091 -0.57780818 11.30116703 -0.4375 8.4375 C-0.37272461 7.22803711 -0.37272461 7.22803711 -0.30664062 5.99414062 C-0.20024738 3.99631195 -0.09959112 1.9981793 0 0 Z " fill="#DBD3DC" transform="translate(186,255)"/>
<path d="M0 0 C4.2272474 0.07512071 7.11001708 1.07251051 10.75 3.3125 C10.09 3.9725 9.43 4.6325 8.75 5.3125 C7.40835921 5.0143576 6.07676508 4.67108516 4.75 4.3125 C2.41699067 4.27361651 0.08290199 4.2676365 -2.25 4.3125 C-2.58 5.3025 -2.91 6.2925 -3.25 7.3125 C-1.93 7.9725 -0.61 8.6325 0.75 9.3125 C-5.125 8.4375 -5.125 8.4375 -6.25 7.3125 C-6.4375 4.875 -6.4375 4.875 -6.25 2.3125 C-3.86629091 -0.07120909 -3.2563401 0.01661398 0 0 Z " fill="#E9E6E7" transform="translate(289.25,234.6875)"/>
<path d="M0 0 C0.33 0 0.66 0 1 0 C1.11654436 3.5622231 1.1873639 7.12395342 1.25 10.6875 C1.30027344 12.19860352 1.30027344 12.19860352 1.3515625 13.74023438 C1.45037546 21.22531572 1.45037546 21.22531572 -0.828125 25.14453125 C-3 27 -3 27 -6 28 C-6.33 27.34 -6.66 26.68 -7 26 C-3.25 23 -3.25 23 -1 23 C-1.33 22.01 -1.66 21.02 -2 20 C-1.93728487 17.1493123 -1.8147798 14.34195248 -1.625 11.5 C-1.58117187 10.72785156 -1.53734375 9.95570313 -1.4921875 9.16015625 C-1.28992165 5.91828417 -1.03158991 3.09476974 0 0 Z " fill="#812FD1" transform="translate(110,200)"/>
<path d="M0 0 C5.75 0.75 5.75 0.75 8 3 C7.875 5.5 7.875 5.5 7 8 C4.98774251 9.77078659 3.61077101 10.03269902 0.95703125 9.890625 C-1.03633071 9.65071595 -3.0195705 9.33007158 -5 9 C-3 7 -3 7 0.5625 6 C1.696875 5.67 2.83125 5.34 4 5 C4.33 4.34 4.66 3.68 5 3 C2.525 2.01 2.525 2.01 0 1 C0 0.67 0 0.34 0 0 Z " fill="#DED9E2" transform="translate(288,256)"/>
<path d="M0 0 C0.66 0.66 1.32 1.32 2 2 C1.525625 2.598125 1.05125 3.19625 0.5625 3.8125 C-1.37508475 7.76517289 -1.49455906 11.1220641 -1.69140625 15.4765625 C-2 18 -2 18 -4 21 C-5.96140327 17.07719345 -5.35060622 12.28585881 -5 8 C-3.66792442 4.54871328 -2.59003919 2.59003919 0 0 Z " fill="#C3BFC9" transform="translate(439,237)"/>
<path d="M0 0 C5.19822672 1.36144033 8.09543873 3.46730171 12 7 C10.75023244 10.65316671 10.32901247 11.78065836 7 14 C6.01 14 5.02 14 4 14 C4.33 13.01 4.66 12.02 5 11 C5.66 11 6.32 11 7 11 C7.33 9.35 7.66 7.7 8 6 C7.4225 5.896875 6.845 5.79375 6.25 5.6875 C3.64338842 4.89103535 2.0264689 3.80934723 0 2 C0 1.34 0 0.68 0 0 Z " fill="#D0CCD4" transform="translate(55,236)"/>
<path d="M0 0 C1.02820502 3.08461506 1.04582849 4.89685239 0.87890625 8.10546875 C0.83056641 9.08837891 0.78222656 10.07128906 0.73242188 11.08398438 C0.67634766 12.10814453 0.62027344 13.13230469 0.5625 14.1875 C0.51029297 15.22326172 0.45808594 16.25902344 0.40429688 17.32617188 C0.27461607 19.88442049 0.13965022 22.44227938 0 25 C-0.66 25.33 -1.32 25.66 -2 26 C-2.05814085 22.41673499 -2.09364357 18.83359162 -2.125 15.25 C-2.14175781 14.23421875 -2.15851563 13.2184375 -2.17578125 12.171875 C-2.18222656 11.1921875 -2.18867188 10.2125 -2.1953125 9.203125 C-2.20578613 8.30239258 -2.21625977 7.40166016 -2.22705078 6.47363281 C-1.98721676 3.86073144 -1.32312064 2.24335334 0 0 Z " fill="#ECEAEF" transform="translate(266,246)"/>
<path d="M0 0 C-1.07378906 0.02578125 -2.14757812 0.0515625 -3.25390625 0.078125 C-13.79764951 0.30933591 -13.79764951 0.30933591 -23 5 C-23.99 5.66 -24.98 6.32 -26 7 C-26 4 -26 4 -24.0625 1.9375 C-17.5025969 -2.21264278 -6.73944257 -4.49296171 0 0 Z " fill="#E8E6EA" transform="translate(298,226)"/>
<path d="M0 0 C0.66 0.33 1.32 0.66 2 1 C2.02703562 3.58340384 2.04685611 6.16652308 2.0625 8.75 C2.07087891 9.47960937 2.07925781 10.20921875 2.08789062 10.9609375 C2.10391684 14.48670558 1.95292713 17.61034916 1 21 C1.66 21 2.32 21 3 21 C1.73058503 24.91402949 0.48832306 26.79072873 -3 29 C-3.66 28.67 -4.32 28.34 -5 28 C-4.03320312 27.12794922 -4.03320312 27.12794922 -3.046875 26.23828125 C0.00728947 21.40640655 -0.32537014 16.79572354 -0.25 11.1875 C-0.22035156 10.11306641 -0.19070312 9.03863281 -0.16015625 7.93164062 C-0.08965079 5.28768573 -0.03685857 2.6446027 0 0 Z " fill="#DAD5E1" transform="translate(111,199)"/>
<path d="M0 0 C-2.36980127 1.57986751 -4.36910864 2.62602067 -6.9375 3.75 C-11.04101599 5.81305207 -12.96456413 7.77255628 -15 12 C-15.86201381 15.30934038 -16.49222476 18.6192859 -17 22 C-17.33 22 -17.66 22 -18 22 C-18.05429959 20.25034642 -18.09292823 18.50020213 -18.125 16.75 C-18.15980469 15.28820312 -18.15980469 15.28820312 -18.1953125 13.796875 C-17.92376297 9.90828572 -17.04617473 7.94844291 -14.16015625 5.33203125 C-13.12181641 4.57986328 -13.12181641 4.57986328 -12.0625 3.8125 C-11.37285156 3.30332031 -10.68320313 2.79414063 -9.97265625 2.26953125 C-6.61294999 0.10734405 -3.8959971 -0.10529722 0 0 Z " fill="#DFDAE2" transform="translate(145,210)"/>
<path d="M0 0 C0.99 0.33 1.98 0.66 3 1 C2.67 1.66 2.34 2.32 2 3 C-0.3140622 3.73075648 -2.64828869 4.40138258 -5 5 C-5.94288183 9.9600338 -6.30248211 14.84514574 -6.5625 19.875 C-6.60568359 20.65875 -6.64886719 21.4425 -6.69335938 22.25 C-6.79853351 24.16650649 -6.89967925 26.08323333 -7 28 C-7.33 28 -7.66 28 -8 28 C-8.14575327 24.60462148 -8.23421542 21.21005098 -8.3125 17.8125 C-8.35439453 16.85279297 -8.39628906 15.89308594 -8.43945312 14.90429688 C-8.56345284 7.73711335 -8.56345284 7.73711335 -5.66796875 3.94921875 C-3.80863272 2.5907873 -1.9159693 1.27731286 0 0 Z " fill="#874CD0" transform="translate(43,261)"/>
<path d="M0 0 C2.875 0.3125 2.875 0.3125 6 1 C8.31332486 4.46998729 8.33957563 5.92509248 8 10 C7.01 11.485 7.01 11.485 6 13 C5.34 13 4.68 13 4 13 C4.33 10.36 4.66 7.72 5 5 C2.525 4.01 2.525 4.01 0 3 C0 2.01 0 1.02 0 0 Z " fill="#DDDBE0" transform="translate(151,250)"/>
<path d="M0 0 C0 0.66 0 1.32 0 2 C-4.4076787 3.68961017 -8.0378362 4.24721636 -12.75 4.1875 C-13.87921875 4.18105469 -15.0084375 4.17460937 -16.171875 4.16796875 C-19 4 -19 4 -21 3 C-21 2.34 -21 1.68 -21 1 C-20.04738281 1.01160156 -19.09476563 1.02320313 -18.11328125 1.03515625 C-16.85902344 1.04417969 -15.60476562 1.05320312 -14.3125 1.0625 C-13.07113281 1.07410156 -11.82976562 1.08570313 -10.55078125 1.09765625 C-6.95577381 0.99878366 -3.55133873 0 0 0 Z " fill="#DCDADC" transform="translate(160,273)"/>
<path d="M0 0 C1.32 0.66 2.64 1.32 4 2 C2.42210402 3.15330947 0.8374518 4.29737927 -0.75 5.4375 C-1.63171875 6.07558594 -2.5134375 6.71367187 -3.421875 7.37109375 C-5.72699125 8.8275081 -7.34349572 9.55931821 -10 10 C-10 9.34 -10 8.68 -10 8 C-9.01 8 -8.02 8 -7 8 C-6.67 7.01 -6.34 6.02 -6 5 C-4.35178756 3.96986723 -2.68496298 2.96885372 -1 2 C-0.67 1.34 -0.34 0.68 0 0 Z " fill="#3C1267" transform="translate(94,298)"/>
<path d="M0 0 C0.99 1.32 1.98 2.64 3 4 C-0.9050849 7.55007718 -3.97734643 8.81819916 -9 10 C-9 8.68 -9 7.36 -9 6 C-5.535 5.505 -5.535 5.505 -2 5 C-1.34 3.35 -0.68 1.7 0 0 Z " fill="#D6D0D9" transform="translate(210,268)"/>
<path d="M0 0 C1.125 1.6875 1.125 1.6875 2 4 C0.9658729 8.78283785 -2.49622045 12.69616439 -6 16 C-6.66 16 -7.32 16 -8 16 C-6.90098758 13.52722205 -5.78487714 11.75126419 -4 9.6875 C-1.58277404 6.43935262 -0.92059368 3.91252314 0 0 Z " fill="#BFBABF" transform="translate(466,257)"/>
<path d="M0 0 C0.66 0 1.32 0 2 0 C3.2890625 1.53125 3.2890625 1.53125 4.625 3.5 C5.07101563 4.1496875 5.51703125 4.799375 5.9765625 5.46875 C6.31429687 5.9740625 6.65203125 6.479375 7 7 C6.34 7.66 5.68 8.32 5 9 C3.68 8.01 2.36 7.02 1 6 C1 7.65 1 9.3 1 11 C0.67 11 0.34 11 0 11 C0 7.37 0 3.74 0 0 Z " fill="#E2E2E3" transform="translate(187,257)"/>
<path d="M0 0 C4.29 0.99 8.58 1.98 13 3 C12.67 3.66 12.34 4.32 12 5 C8.44307323 5.85056945 6.50729422 6.16909807 3 5 C3 4.01 3 3.02 3 2 C2.01 2 1.02 2 0 2 C0 1.34 0 0.68 0 0 Z " fill="#E1DEE1" transform="translate(273,272)"/>
<path d="M0 0 C-1.13068534 2.54404202 -2.21924052 4.23858527 -4.125 6.3125 C-6.50553532 9.72460063 -6.31934909 11.92829904 -6 16 C-6.66 16 -7.32 16 -8 16 C-8.49537762 11.9544161 -8.85201741 8.45158521 -6.734375 4.84375 C-2.64497951 0 -2.64497951 0 0 0 Z " fill="#360962" transform="translate(385,248)"/>
<path d="M0 0 C1.33332095 2.6666419 0.67102033 4.16680303 0 7 C-0.66 7 -1.32 7 -2 7 C-2.12375 7.9075 -2.2475 8.815 -2.375 9.75 C-2.92109677 12.58970323 -3.57263803 14.52590591 -5 17 C-6.26916725 13.19249826 -5.47776092 11.6897429 -4.1875 7.9375 C-3.83042969 6.87402344 -3.47335937 5.81054688 -3.10546875 4.71484375 C-2 2 -2 2 0 0 Z " fill="#421A6B" transform="translate(339,227)"/>
<path d="M0 0 C0.66 1.32 1.32 2.64 2 4 C-4.15034169 11.48291572 -4.15034169 11.48291572 -8 14 C-8 9.77679562 -5.92905729 8.92905729 -3 6 C-1.20679176 2.83354526 -1.20679176 2.83354526 0 0 Z " fill="#E1DCE4" transform="translate(170,260)"/>
<path d="M0 0 C0.66 0 1.32 0 2 0 C1.36678379 5.82558915 0.18531894 11.54193068 -2 17 C-2.66 17.33 -3.32 17.66 -4 18 C-3.52319861 15.56201552 -3.04365871 13.12462484 -2.5625 10.6875 C-2.42779297 9.99720703 -2.29308594 9.30691406 -2.15429688 8.59570312 C-1.57225668 5.65710993 -0.94847772 2.84543315 0 0 Z " fill="#E1DDE5" transform="translate(334,231)"/>
<path d="M0 0 C0.66 0 1.32 0 2 0 C1.56826496 6.15222436 0.34594658 9.81917949 -3 15 C-3.33 15 -3.66 15 -4 15 C-3.43179252 9.54520815 -2.05362055 5.08940744 0 0 Z " fill="#D4CFD7" transform="translate(373,240)"/>
<path d="M0 0 C3.80121434 0.8447143 5.56049694 1.36347832 7.8125 4.625 C9.18112194 8.51476763 9.64646807 11.89902957 10 16 C9.34 16.33 8.68 16.66 8 17 C7.87044922 16.00419922 7.87044922 16.00419922 7.73828125 14.98828125 C6.79689582 9.07223517 5.80230137 5.94034984 1 2 C0.67 1.34 0.34 0.68 0 0 Z " fill="#E3E2E6" transform="translate(299,247)"/>
<path d="M0 0 C4.75 0.875 4.75 0.875 7 2 C7 2.66 7 3.32 7 4 C9.97 4.495 9.97 4.495 13 5 C13.33 6.32 13.66 7.64 14 9 C3.25740319 3.9977221 3.25740319 3.9977221 0 0 Z " fill="#D8D2E0" transform="translate(86,182)"/>
<path d="M0 0 C1.670625 0.061875 1.670625 0.061875 3.375 0.125 C3.045 0.785 2.715 1.445 2.375 2.125 C1.735625 2.24875 1.09625 2.3725 0.4375 2.5 C-1.82351273 2.93439427 -1.82351273 2.93439427 -2.875 5.1875 C-3.1225 5.826875 -3.37 6.46625 -3.625 7.125 C-4.285 7.125 -4.945 7.125 -5.625 7.125 C-5.75 4.75 -5.75 4.75 -5.625 2.125 C-3.625 0.125 -3.625 0.125 0 0 Z " fill="#380C65" transform="translate(220.625,208.875)"/>
<path d="M0 0 C1.88838279 2.77703351 1.99354164 4.18729234 1.875 7.625 C1 11 1 11 -1.0625 12.4375 C-2.0215625 12.7159375 -2.0215625 12.7159375 -3 13 C-2.17812739 8.61667943 -1.09845718 4.32059823 0 0 Z " fill="#3A0869" transform="translate(405,254)"/>
<path d="M0 0 C-0.47202486 4.24822374 -2.96655518 6.19989709 -6 9 C-6.66 8.67 -7.32 8.34 -8 8 C-3.45945946 0 -3.45945946 0 0 0 Z " fill="#EDEBED" transform="translate(210,235)"/>
<path d="M0 0 C0 0.66 0 1.32 0 2 C-1.3921875 2.061875 -1.3921875 2.061875 -2.8125 2.125 C-6.28947638 2.68859031 -6.28947638 2.68859031 -7.875 6.0625 C-8.24625 7.031875 -8.6175 8.00125 -9 9 C-9.93423645 5.98968256 -10.04449911 5.13349732 -9 2 C-8.34 2 -7.68 2 -7 2 C-7 1.34 -7 0.68 -7 0 C-3.86650268 -1.04449911 -3.01031744 -0.93423645 0 0 Z " fill="#EEEDEE" transform="translate(261,205)"/>
<path d="M0 0 C2.475 0.495 2.475 0.495 5 1 C4.67 3.31 4.34 5.62 4 8 C3.34 7.67 2.68 7.34 2 7 C1.34 7.66 0.68 8.32 0 9 C0 6.03 0 3.06 0 0 Z " fill="#D5CFD4" transform="translate(375,228)"/>
<path d="M0 0 C1.5625 1.25 1.5625 1.25 3 3 C2.9375 5.0625 2.9375 5.0625 2 7 C-0.0625 8.25 -0.0625 8.25 -2 9 C-1.125 2.25 -1.125 2.25 0 0 Z " fill="#DFD7DF" transform="translate(342,247)"/>
<path d="M0 0 C1.21236328 0.04060547 1.21236328 0.04060547 2.44921875 0.08203125 C3.06410156 0.11683594 3.67898438 0.15164062 4.3125 0.1875 C4.3125 0.8475 4.3125 1.5075 4.3125 2.1875 C1.43038698 3.14820434 -0.38600044 3.29331883 -3.375 3.25 C-4.58736328 3.23646484 -4.58736328 3.23646484 -5.82421875 3.22265625 C-6.74654297 3.20525391 -6.74654297 3.20525391 -7.6875 3.1875 C-5.26849268 0.20484049 -3.789448 -0.16475861 0 0 Z " fill="#37065F" transform="translate(396.6875,225.8125)"/>
<path d="M0 0 C-1.42859407 1.03325986 -2.86822383 2.05127634 -4.3125 3.0625 C-5.51326172 3.91521484 -5.51326172 3.91521484 -6.73828125 4.78515625 C-7.48464844 5.18605469 -8.23101562 5.58695313 -9 6 C-9.99 5.67 -10.98 5.34 -12 5 C-10.34691322 1.69382644 -7.21999452 0.41828383 -3.8125 -0.75 C-2 -1 -2 -1 0 0 Z " fill="#D2CBD8" transform="translate(68,178)"/>
<path d="M0 0 C2.875 0.5 2.875 0.5 6 2 C7.23119845 4.58278074 7.80401535 7.14931417 8 10 C7.67 10.66 7.34 11.32 7 12 C6.74605469 11.46890625 6.49210938 10.9378125 6.23046875 10.390625 C4.41650476 6.6675828 2.6686482 3.20237785 0 0 Z " fill="#E5E1E6" transform="translate(164,241)"/>
<path d="M0 0 C1.79244141 0.01740234 1.79244141 0.01740234 3.62109375 0.03515625 C5.41740234 0.04869141 5.41740234 0.04869141 7.25 0.0625 C8.17683594 0.07410156 9.10367187 0.08570313 10.05859375 0.09765625 C10.05859375 0.75765625 10.05859375 1.41765625 10.05859375 2.09765625 C5.07644386 3.1652598 0.718995 3.42785687 -3.94140625 1.09765625 C-2.94140625 0.09765625 -2.94140625 0.09765625 0 0 Z " fill="#D2D1D3" transform="translate(388.94140625,274.90234375)"/>
<path d="M0 0 C0.8125 1.6875 0.8125 1.6875 1 4 C-1.62685275 7.22727623 -3.74780225 9.52753358 -8 10 C-8 9.34 -8 8.68 -8 8 C-7.236875 7.566875 -6.47375 7.13375 -5.6875 6.6875 C-2.68071451 4.79951841 -1.60145073 3.11861458 0 0 Z " fill="#E3DFE4" transform="translate(306,265)"/>
<path d="M0 0 C0 0.99 0 1.98 0 3 C-0.99 3.495 -0.99 3.495 -2 4 C-2 5.65 -2 7.3 -2 9 C-2.99 8.67 -3.98 8.34 -5 8 C-4.74438677 5.6568787 -4.40729228 3.32156597 -4 1 C-2 0 -2 0 0 0 Z " fill="#37075D" transform="translate(133,259)"/>
<path d="M0 0 C0.66 0.66 1.32 1.32 2 2 C0.16172132 5.15133488 -1.75972706 8.11964908 -4 11 C-4.36630156 7.06225823 -4.30233203 5.43460229 -2 2.125 C-1.34 1.42375 -0.68 0.7225 0 0 Z " fill="#CAC9CC" transform="translate(439,237)"/>
<path d="M0 0 C1.98 0 3.96 0 6 0 C6.66 1.32 7.32 2.64 8 4 C7.05125 3.835 6.1025 3.67 5.125 3.5 C2.19831099 2.9473365 2.19831099 2.9473365 0 3 C0 3.66 0 4.32 0 5 C-0.66 5 -1.32 5 -2 5 C-1.34 3.35 -0.68 1.7 0 0 Z " fill="#3B1562" transform="translate(255,207)"/>
<path d="M0 0 C2 2 2 2 2 6 C3.32 6.66 4.64 7.32 6 8 C0.125 7.125 0.125 7.125 -1 6 C-1.125 3.5 -1.125 3.5 -1 1 C-0.67 0.67 -0.34 0.34 0 0 Z " fill="#EBE9EB" transform="translate(284,236)"/>
<path d="M0 0 C-2.93720508 1.52299523 -5.9168649 2.80100302 -9 4 C-8.625 2.0625 -8.625 2.0625 -8 0 C-5.13822943 -1.43088528 -3.06624227 -0.59991697 0 0 Z " fill="#3E1565" transform="translate(374,227)"/>
<path d="M0 0 C2.31 0.33 4.62 0.66 7 1 C7 1.66 7 2.32 7 3 C4.03 3 1.06 3 -2 3 C-1.34 2.01 -0.68 1.02 0 0 Z " fill="#3D1560" transform="translate(313,226)"/>
<path d="M0 0 C2.375 -0.125 2.375 -0.125 5 0 C5.66 0.66 6.32 1.32 7 2 C6.625 4.125 6.625 4.125 6 6 C5.67 5.01 5.34 4.02 5 3 C3.35 2.67 1.7 2.34 0 2 C0 1.34 0 0.68 0 0 Z " fill="#3A0E63" transform="translate(178,207)"/>
<path d="M0 0 C2.97 0 5.94 0 9 0 C9.33 0.66 9.66 1.32 10 2 C6.7 2.33 3.4 2.66 0 3 C0 2.01 0 1.02 0 0 Z " fill="#D6CCD6" transform="translate(285,235)"/>
<path d="M0 0 C0.66 0.33 1.32 0.66 2 1 C1.67 2.98 1.34 4.96 1 7 C0.01 7.33 -0.98 7.66 -2 8 C-2.66 7.34 -3.32 6.68 -4 6 C-3.525625 5.566875 -3.05125 5.13375 -2.5625 4.6875 C-0.76313043 2.97690387 -0.76313043 2.97690387 0 0 Z " fill="#481A6A" transform="translate(167,217)"/>
<path d="M0 0 C3.375 0.6875 3.375 0.6875 7 2 C8.4375 4.625 8.4375 4.625 9 7 C5.56072421 5.7580393 2.74792181 4.44259716 0 2 C0 1.34 0 0.68 0 0 Z " fill="#DBD7E1" transform="translate(101,190)"/>
<path d="M0 0 C2.31 0.66 4.62 1.32 7 2 C7.33 3.32 7.66 4.64 8 6 C5.0280615 4.87548273 2.66559313 3.77706209 0 2 C0 1.34 0 0.68 0 0 Z " fill="#451973" transform="translate(133,239)"/>
<path d="M0 0 C1.98 0 3.96 0 6 0 C7.42944945 2.35438733 8.08661261 3.48032433 7.625 6.25 C7.41875 6.8275 7.2125 7.405 7 8 C6.5875 7.236875 6.175 6.47375 5.75 5.6875 C4.04124191 3.0633358 2.58982247 1.69678024 0 0 Z " fill="#DDD8E4" transform="translate(299,226)"/>
<path d="M0 0 C1.4835001 0.42257276 2.96176424 0.86356322 4.4375 1.3125 C5.67306641 1.67794922 5.67306641 1.67794922 6.93359375 2.05078125 C7.61550781 2.36402344 8.29742187 2.67726562 9 3 C9.33 3.99 9.66 4.98 10 6 C6.40992874 4.66654496 3.20429093 3.1056769 0 1 C0 0.67 0 0.34 0 0 Z " fill="#D7D0DE" transform="translate(74,175)"/>
<path d="M0 0 C1.4835001 0.42257276 2.96176424 0.86356322 4.4375 1.3125 C5.67306641 1.67794922 5.67306641 1.67794922 6.93359375 2.05078125 C7.61550781 2.36402344 8.29742187 2.67726563 9 3 C9.33 3.99 9.66 4.98 10 6 C5.56909529 4.79157144 3.01887244 3.48331435 0 0 Z " fill="#8031D7" transform="translate(59,306)"/>
<path d="M0 0 C1.98 0.99 1.98 0.99 4 2 C3.67 3.32 3.34 4.64 3 6 C2.34 6 1.68 6 1 6 C0.67 6.99 0.34 7.98 0 9 C0 6.03 0 3.06 0 0 Z " fill="#C6C3C1" transform="translate(435,271)"/>
<path d="M0 0 C0.91307373 3.08162384 1.41112802 5.79320141 1 9 C-1 10.8125 -1 10.8125 -3 12 C-2.68950274 10.56206608 -2.3765224 9.1246682 -2.0625 7.6875 C-1.88847656 6.88699219 -1.71445313 6.08648437 -1.53515625 5.26171875 C-1 3 -1 3 0 0 Z " fill="#E7E8E9" transform="translate(246,264)"/>
<path d="M0 0 C0.66 0.33 1.32 0.66 2 1 C2.1875 3.375 2.1875 3.375 2 6 C1.01 6.66 0.02 7.32 -1 8 C-1.04241723 5.66705225 -1.04092937 3.33297433 -1 1 C-0.67 0.67 -0.34 0.34 0 0 Z " fill="#37095E" transform="translate(208,266)"/>
<path d="M0 0 C0.99 0.33 1.98 0.66 3 1 C3.33 3.31 3.66 5.62 4 8 C1 6 1 6 0.3125 2.875 C0.209375 1.92625 0.10625 0.9775 0 0 Z " fill="#D4D1D9" transform="translate(346,261)"/>
<path d="M0 0 C2.97 0.99 5.94 1.98 9 3 C4.01298701 4.24675325 4.01298701 4.24675325 1 3 C0.67 2.01 0.34 1.02 0 0 Z " fill="#E3E3DF" transform="translate(142,246)"/>
<path d="M0 0 C0.66 0.33 1.32 0.66 2 1 C1 3 0 5 -1 7 C-1.66 7 -2.32 7 -3 7 C-2.25 2.25 -2.25 2.25 0 0 Z " fill="#E8E3E5" transform="translate(143,222)"/>
<path d="M0 0 C0.99 0.33 1.98 0.66 3 1 C1.68 3.31 0.36 5.62 -1 8 C-1.33 8 -1.66 8 -2 8 C-1.125 1.125 -1.125 1.125 0 0 Z " fill="#49256B" transform="translate(272,261)"/>
<path d="M0 0 C0.66 0.33 1.32 0.66 2 1 C2.59355614 3.64860427 2.74209269 6.29197322 3 9 C0.9375 7.3125 0.9375 7.3125 -1 5 C-0.75 2.25 -0.75 2.25 0 0 Z " fill="#D7D2DB" transform="translate(318,259)"/>
<path d="M0 0 C2.97 0.495 2.97 0.495 6 1 C5.38125 1.185625 4.7625 1.37125 4.125 1.5625 C0.94397134 3.71437233 0.80548053 6.37533763 0 10 C-0.33 10 -0.66 10 -1 10 C-0.67 6.7 -0.34 3.4 0 0 Z " fill="#E8E5E8" transform="translate(270,259)"/>
<path d="M0 0 C0.66 0.99 1.32 1.98 2 3 C0.625 6.6875 0.625 6.6875 -1 10 C-1.66 9.67 -2.32 9.34 -3 9 C-2.01 6.03 -1.02 3.06 0 0 Z " fill="#401A66" transform="translate(362,238)"/>
<path d="M0 0 C0.66 0.66 1.32 1.32 2 2 C1.875 4.4375 1.875 4.4375 1 7 C-1.0625 8.8125 -1.0625 8.8125 -3 10 C-2.39009109 6.44219804 -1.4216319 3.3171411 0 0 Z " fill="#EAEAEB" transform="translate(309,227)"/>
<path d="M0 0 C2.05078125 0.03255208 4.1015625 0.06510417 6.15234375 0.09765625 C6.48234375 0.75765625 6.81234375 1.41765625 7.15234375 2.09765625 C5.79109375 2.03578125 5.79109375 2.03578125 4.40234375 1.97265625 C1.27413915 2.09297181 -0.23379631 2.48912705 -2.84765625 4.09765625 C-2.84765625 0.15051037 -2.84765625 0.15051037 0 0 Z " fill="#D7D4DB" transform="translate(366.84765625,224.90234375)"/>
<path d="M0 0 C0.66 0.33 1.32 0.66 2 1 C1.1875 2.9375 1.1875 2.9375 0 5 C-0.99 5.33 -1.98 5.66 -3 6 C-3 3 -3 3 -1.5 1.3125 C-0.7575 0.6628125 -0.7575 0.6628125 0 0 Z " fill="#441669" transform="translate(164,266)"/>
<path d="M0 0 C1.125 1.6875 1.125 1.6875 2 4 C1.125 6.75 1.125 6.75 0 9 C-0.99 8.67 -1.98 8.34 -3 8 C-2.01 5.36 -1.02 2.72 0 0 Z " fill="#B9B2BB" transform="translate(466,257)"/>
<path d="M0 0 C0.66 0.33 1.32 0.66 2 1 C1.34 3.31 0.68 5.62 0 8 C-0.66 8 -1.32 8 -2 8 C-1.125 1.125 -1.125 1.125 0 0 Z " fill="#DBD8E1" transform="translate(339,257)"/>
<path d="M0 0 C0.33 1.32 0.66 2.64 1 4 C-0.65 5.32 -2.3 6.64 -4 8 C-4 4.09161134 -2.49432124 2.88405893 0 0 Z " fill="#380F5F" transform="translate(455,258)"/>
<path d="M0 0 C3.26954202 0.56371414 4.82575883 1.49962266 7 4 C3.79604584 4 1.90600261 3.25664978 -1 2 C-0.67 1.34 -0.34 0.68 0 0 Z " fill="#D9D3DB" transform="translate(158,237)"/>
<path d="M0 0 C0.66 0.66 1.32 1.32 2 2 C1.96712417 4.72869407 1.43602229 7.2966618 1 10 C-0.625 8.375 -0.625 8.375 -2 6 C-1.1875 2.75 -1.1875 2.75 0 0 Z " fill="#CEC8D7" transform="translate(271,232)"/>
<path d="M0 0 C0.66 0.33 1.32 0.66 2 1 C2.625 4.0625 2.625 4.0625 3 7 C2.01 7.495 2.01 7.495 1 8 C-0.42944945 5.64561267 -1.08661261 4.51967567 -0.625 1.75 C-0.41875 1.1725 -0.2125 0.595 0 0 Z " fill="#DBD8DB" transform="translate(349,226)"/>
<path d="M0 0 C1.65 0.33 3.3 0.66 5 1 C4.67 1.66 4.34 2.32 4 3 C0.9375 3.625 0.9375 3.625 -2 4 C-1.34 2.68 -0.68 1.36 0 0 Z " fill="#360C5F" transform="translate(341,226)"/>
</svg>
